<mxfile host="app.diagrams.net" modified="2022-06-13T12:19:17.960Z" agent="5.0 (Windows NT 10.0; Win64; x64) AppleWebKit/537.36 (KHTML, like Gecko) Chrome/102.0.0.0 Safari/537.36" etag="0pt3bEAXX8C4FiTOiVHu" version="18.0.3" type="github">
  <diagram id="tAPsYgnPfxuxoNKkA7fT" name="Page-1">
    <mxGraphModel dx="1422" dy="772" grid="1" gridSize="10" guides="1" tooltips="1" connect="1" arrows="1" fold="1" page="1" pageScale="1" pageWidth="827" pageHeight="1169" math="0" shadow="0">
      <root>
        <mxCell id="0" />
        <mxCell id="1" parent="0" />
        <mxCell id="gRWaRnPRZ2yJ30fN4pCJ-14" style="rounded=0;sketch=1;orthogonalLoop=1;jettySize=auto;html=1;exitX=0.5;exitY=0;exitDx=0;exitDy=0;edgeStyle=orthogonalEdgeStyle;entryX=0.5;entryY=1;entryDx=0;entryDy=0;" edge="1" parent="1" source="gRWaRnPRZ2yJ30fN4pCJ-6" target="gRWaRnPRZ2yJ30fN4pCJ-11">
          <mxGeometry relative="1" as="geometry">
            <mxPoint x="489" y="390" as="targetPoint" />
            <Array as="points">
              <mxPoint x="507" y="458" />
              <mxPoint x="570" y="458" />
              <mxPoint x="570" y="390" />
              <mxPoint x="571" y="390" />
            </Array>
          </mxGeometry>
        </mxCell>
        <mxCell id="gRWaRnPRZ2yJ30fN4pCJ-23" style="edgeStyle=orthogonalEdgeStyle;rounded=0;sketch=1;orthogonalLoop=1;jettySize=auto;html=1;exitX=0;exitY=0.5;exitDx=0;exitDy=0;entryX=1;entryY=0.5;entryDx=0;entryDy=0;" edge="1" parent="1" source="gRWaRnPRZ2yJ30fN4pCJ-6" target="gRWaRnPRZ2yJ30fN4pCJ-17">
          <mxGeometry relative="1" as="geometry" />
        </mxCell>
        <mxCell id="gRWaRnPRZ2yJ30fN4pCJ-6" value="" style="shape=image;verticalLabelPosition=bottom;labelBackgroundColor=default;verticalAlign=top;aspect=fixed;imageAspect=0;image=data:image/png,iVBORw0KGgoAAAANSUhEUgAAAeAAAACiCAYAAACZMx5GAAAgAElEQVR4nOy9d5Qc93Xn+6lc1Tn3REzCDCKRiUASIMUclC2JliwqOay8kmX72Wt7z+47u2v5vbeWba1tWZZMK0uURQXLEinmTIIRJAKR8+SZnp7uns6hwvujGg0MAQIgBZqiie85OAfT3bfq/qp+VTffKyxYs9HhFRBEkVjPQhILlyEA43u3Uy8XWbB6EyPbn6F9ySqmDrxMvH+IWrFAJZ/llj/7ayb372TywMtkRo+ROrwX2zIBkDWd7hWX4o+3Uy3kmNy/i8LMFPH+xbQtWo4giAAU09MMb38aq9Fo8eKNxFiwahOyqlGeyzC26wVqpcIrWT4Niu7hik98jkhXP3se/DeObXvyrHS6rnPZpg3k8wW2vfjSvO9kWeKaq68iGo3O+zyTyfLMs8+zds2qFp3f72fL5ss5cPAQx44d55qrryIWO53uiSefYuHAAEuXLqbRaDAyOkZbMommaWx78SWWL1vKvn37OXL02Bn59XgMNm7cQDIRp15vcODAQfbs3cfAQD+rVl6CaZqkZtJ0d3Yyl8/z2ONP0NnRwcqVK5AkEU3T+K1PfZxP/OanqVQqbL7iMlRVnXeOHTt2MTE5yVVXbuHBhx6hVCoRjUbYfPllPPDQw5TLFXRdZ83qlXR1diLLMsVSiZ07dzE8MkoiEWfD+nX4fX5yc3O8sO1FZmbSJJMJNqxfx/btOxkdG6e/v4+lSxbz9DPPkslkEUWR5cuWMjS0EFVVKRZLPPTwI5TLFWKxKOvWriEcDiEgMDo2xlNbn2FwcCErLlnGI48+QS6XY+2aVXR2dvLAgw9TLpcRRZElixexePEQmqZRKBTZ+vQzZDLZV98TvgBdKy5l8LJrkRSVe//qz7DMxqv+/gREWWb5de9j1bs/ws/+12eZmxoHINY7SPvilQiiu99LmRmGX3oas15zz+cP0rV8HZ5wlFI2zeS+nZRzs8R6B4l09TF9eC+JgSVM7NtJ57LVzA4fZnbkyDn5ORP8AZXf+tw6Cvk6e3ZO4/OrTI4XObB7BstyWL2+g1jSg3AKTS5TZfeOaQaXRCmXGhzYk8YwZFZd2s7ocJ6J0Tyr17cTS3pPo9uxbZK2Dh+DS6KYDZvx0QKxhAfdkHn5pWlmpkuvax0XcRFvZQhnEsCvFX2XbmHTb/wuT3zji4zteuFC8HVBEO9fxKp3fQRZUXnmjn8kNzn6ZrP0pkFRFHp6FqCpKoahc9tvfJj2jnZ+7/f/iOnp1JvN3q8kwp29rH3fxxAVhYNP3MfxF7eekybU3k3n8rWsuPlDTOx5iWfu+Ar1yq+ecDkhgFPTJb7/tZ04v/Rb4CIu4iJeK+QLcRDdH6RWKlKanbkQh7tgmDl6gAf/7n+82Wz8SiCZSPBf//SP6e7qwLYdpqamuf2fv8HsbObNZu1XFtnx4zz0D39+3r8XJZk1772N5MJlTOx5iW3/+u1fSeEL4DhQr1tYpv1ms3IRF/G2xQWxgFXDi+bzU8qkW27ni/jVgiiKxOMxFFnGtm1q9QZzuRymZb3ZrP2HgicURRBFGpUS9Ur5zWbnVSEI4A9oOEBhrvZms3MRF/G2xAURwBdxEW93CKKE49hc9OVexNsNgiAgCCK2/fqVeUEQEEQR+21mEEjB9q7/+WYzcREX8VaFKMlEuvvoW78FSZYpzl6Mp1/E2wvB9m4GNl6FanioV4pY9fprolc9PnpWb6Tv0i0UZiZ/ZcM2bwQuSAz4jYTuC9C3fgtzU+NM7N3+mmgT/iRrui4l5otTqBZ49NCD5KtzbwifiqRg2ibOGSwgQRC4dMFG2vwdPHzwfkr14hvCw+uFIEpI0okMaAccB8s2cU7RaDUjwODymykXZji6/+HzPvZrpRMEEUnWWn87joVtNZAVg4El1xKM9iIIAlOjOzl+8LHz5uNcCEV7GVh6HccPPMZs6tB50YiSzJKr38ny699PtTBHOZO+YPycCaqi4ACNxrkzsc8XmqbSaJjY9oWJBeuKSDPJG9sBy3JoWCefCUkUuHyxn8F2nR89M0u+fH4Wj66I3LA6hEcVuXNrGvscjgZBcGkE4SQvDdPBsh02Lw1w5dIAoiiwb6zMT56ZPefxzhd+Q+J9GyJkiia/eDF7Xg4RQQBVFhGbvFq2Q9385Rg6ccxa48LF+GVJQBQ4jTdVN2hfvJIVN32Iyf07eeHH36CUOb98IElWWHbtu1l+4weYPrAbWdMvGL9vBfzSAliUpDfUbWAEI6y8+Va23/X910Tn0/x8cNVHWBgbYjhzFAFXSL4RkEWZD6/5GIdmDvDM8adO+14SZJYkl9EXHeDJo49Sem0K4huOeNtiNl77ByiqF8e2qFULjBx+igO77qJedUu3ND1Az+BmZqcPvTYBrPvpGdxMJnV+dNHkEFe/5/NYZh0Hh3IxzeE99zF65Gls20JWNHoWbkZAuGACWBBEQrE+BpZez2zq0HkL4Lah5Vxy4wfY/9gvOPjk/dRKb6xi9Z53v5POzg7+7kv/eEZF77VCkiT+4HOfYc/e/dz9i3t/6ePJosD/uLWb9Qt91C2Hat1m+7Ei3318huOpGo4DmiKwccjP2gEv9++YO28B7NVFrlwawNBcAXwutIVUPv/hbnriGqblUKzaPH0gzw+emsWyHEzb4R1LA7SFFH7yzOwvu/QWAobENZcEOTxV5Z4Xs5zrLokCrOzzctuVcbqjGoIAo+kaX75visOT1dfNR29c4/ff2cFf/nScyeyFeeFctTzIZYv8/D8/HsM6RWNJDx/mia//Ne2LVnDZbZ9l6Irr2fmLO88rH0jWDRIDS5nav4snvvE31EtvH+sXXkUAy6pG94r1JAeXgSAw/NJWpg7uJjGwhN41l1Ovltn/6N0ouofules58txjCILI4itvYmTHsyQWLiXU3s3c1BiHtj5Eo1rGG47Ru24zwbZOasUCh556gOJsiuU3/hqBeDtTB18mNzlKz5rLEWWJw1sfJt6/iAWrNuKPt9O39grivUMU0lPsvv9fz1mPGfPGuaR9JXdu/x6PHnqo9bkqqdiOjWm7m0OTNepWHRxXQDs4iM26ZNM2sU6xAmVRQWqq97ZjY1omkiihKwY9kV5K9SJa03prWA1sx0YWZWRR4r59vyBoBOdZ4AICsqQgCgIOYDZpTvBl2RaSKJ2RlzNBFGVESQbHaT34giBgmTVEUQZBxDJrrc+l5rUQJQXdCDJ88AlmU4eJJgdZfumtlItpjux7EFlSqZSyPP/Yl6nXTj4gruWs4Nh2q7bVMutuLFQQmnQ5nn/syzRq8x8sSdYQBAEcB9u2sJv3QxAlVM3Hzu3foVqZo717Neuv+gyF3AQHX/4FU2M7SHauOH3tkoIoiJjN9UmyiuM42Faj9bcgiE3B5bR4dS1ulenRHWy9/wtMj+06yaOkuDQ4TVoby6w3zyfRdck66uUSBx6/l0o+N399koSiKAgCOLZDwzSxmoqqoihIkntfLctqWbSqqrrXBBAFAcu2qdfryLKMosi0t7cxuHAAw9BxHIdard6yXFVVQTyxV0wT02zub03DcRzqTbegrustPnRdY6C/n2KxhGG4lke93mh9jyAgKyq2ZZ6fki1ALCCzf7zCvduzRP0yH7wshleX+IsfjVFt2DgO/HBrmgd35hibPZn8Zagipu0gN83AhukKSQBNESnXbL5y/xSKJMyzVlVZQGrSmKdY26IAiaDCtiMlnjlQoCuq8utXxLAd+NIvJtk7VqE3frq1JQru+Sp197oqkoAoCi1LUpEEZMl9Xi3bQTrxnePS5coWX/jZBKWq1eJTFAU0WWj93gHqDQfbcRjsMPjzX1/AeKbO7Q9OIwhw6UIfAcO9l5IooMru+k61jMWmhWs57jVzHKg1M9o1RSTsk1k34CXsk8mVTBwHqs01yJKAIjWvme3QaB5TlU+u1Wmu58R1VWWB9pDCmn4vHk3EbCoxDdPBsW3q5RIjO5+ja8WlDGy6msNPP0QhPX3OLWM16tTLRXR/kEa57L473kY4TQBLisqa995G//ormZsaw5/ooH1oOff/7f+NJxgmkOwg3r8YUZIIJjsJtnczsXcHkqqy4uYPEe0dRPN4kWSVoc03kDq6n2J6mstu+yyhzh5KsymiCwbwJ9rY+q2/xx9vo33JSnrWXMbsyGFkzSDWO4gnGGFuaoxwZw8ODogCeiBEtZQ/q2alSApxX4KuUDce1UOukqUj2Em1UaVQy/Pbl32GYq3ID7ffgWWbfG7LH/PY4Yc4mDrAR9Z9HFVSCRohfKqffdO7+eH271OqF0n627hhyS0sTi5FEVWm8hM8dPA+op4YVw9dT0ewi/ZAJ6u61mLZFnft/inbx7ZxRf+VXLPoBhRRZbo4xTee+SpzVfdl3Rnq5n0rPsiCcA91q85zw09z/757sB2Lz235Y6pmlZg3hibrvDDyHHft+Sl189UzVhcsvJzll95KvVZCklVK+WlCsX52PvNtND3AwuU38uS9/5tCbhyPL86m6/6Q9NR+pkZ3YlkNJkd3MHL4KUYOP0m8YylefwJdD7L68k8S71iGrOgc3fsAO575DgCx5CLWbv5tapU5gtEFOA4c2Plz9u/4N3Q9wOrLP3UK3YPseObbgOu63XD179HWtZJGo0xqYg/7XvpX8tkxAMxGheMHH6eQmyA9uZ9E53LCsf55wvFUCILI4pXvpn/JNTx2159TLs6w9orfQlY9bHv8q0iyytorfpto2xDlYppGvYzjODx+9+cJhLvYdO0foBlBZFnnoZ/+GXMZt158YNkNDCy5jmJhmlhyEdVyjm1P/BMzk3vRvH6iPQvJTYxQKcwPa3g8Bu+65WZuuflGvF4P5UqFhx5+lB/+6CeIosjHb/sNtmy5AlmSOHDwEP90+9cZGR3jw7d+kE2b1tNomLS1JRkbG+fvv/SPdHV18rHbPsKC7m58Ph+3f/UfALjzhz/hrrvvIRqJ8Juf+jhr164Gx2H7jl186zvfI52e5ZMf/yjLly/jr/76b6lWq/zZn/4Rh48cJZ2e5V233ERv7wL6+/vYtGkDtmXz3Tv+hYcefhTHcfAEwlz5O3/CzLGD7Ljr+5i187PI9o9XuHtbFkkUCBgyVy0P4NFErlgS4LYr4wQ9EqPpGv/59qPYjisQvvjJXkpVm86Iis+QeGhnjtsfnKZSt/nApijv3xjBo4o8e6jI5384iu24gu0TVyd47/oItYbD3rEy338izZ5RN/vcdmD3SJm7tmUQBYF4UGGw3Tgr74s6Db70W/18+qtHODJd5T3rI1x9SZD/eecohYrFb1+X5KplAebKFuOZOsmgwl/+dJzUXIPfvbGNDYM+PJrEXdsyfOW+KWwHBtt0/uR9ncwWGgy2G4gC3Ll1lju3prlhVQgB+OLPJzg4UQHg8T15GqaNJAq8b0OED2+OYSgi49k6X7lviu1HSwx1GHz+wwsYSdcY6jAoVi2+8XCK3SNl/vBd7SzuNEiGVP7yth7qps2hySr/7Y4RVFngw5tj3Lg6jEcT2TNS5iv3TzGarnPzmjDv3RDhb342wbFUjT99XyeW7fCjp2f57M1tLOow6IqqfOv3FgKwdX+B2x+Yplh1lTPHthnZ/iyDl12LrJ39Op+AKEpYpokRjDCve8vbBOIrP2gbWs6iK29i+8/v4JGv/L+M796G6vUjiBLHtj3Fw1/+C8Z3v8jSa95NuKuP535wO9nx4yiage4PYjXqPPwPf8Ezd3wZQRSJLhhgwaqNRBcMsPVbf8v9X/zvHHr6IZIDS9H9AbZ+++/Z//g9qB4v43u28/CXP8+hpx6gnMuw654fMbFvB9nx4zzxtb/hoS/9L7b9+Jtndb91BLv4vS1/xK+tvBVV0vjwmo/x2c3/FzcsuQWAsCdCyAi3LI2YL46heBAE97uOYCfPHt/KCyPPsqn3ChbGh5BEiVuWvYe13et55thT3LP3Z1iORZu/nb3Te/jXnXcylZ9g58RL/HjHv/CTnXdydPYwjuOwd2o3P9lxJ0dnDxH1RFvn1RWdGxbfTE+4l4cO3sehmQO8c+l7uaR9BQICbYEO4r4ETx59nMPpQ2weuIq+SP9Zb6as6Hh8cVLjL+PxxigXM8iyRijaS2piD75AG529l7rn94SJJRcxO+26WwUEJElBljWCkQXoRgjbblCvFzm0+152v/ADzHoF3RNunU+SVcLxfiRFawnQxaveizeQoF4vvYIu1KJzbJuRQ0+ye9sPGD/2PD2DW1i86j0nFyIIyLKGrOgEI90oqhezfvaSHlXz4gu0Ny1xAd0TwuOLIggivYuuorNvPUf2Psix/Y/iD3USDHcDUC6m2fXc9zm48y40I4AgntRJFdVDJLGQerXAgV134fHFmnwKSKqGEYxQK5/eXe3yyzbxqU9+jCNHj/Hd7/0Lu3fvZeHAAJqmsXHDem790K/x/PPb+OnP7mLFiuV8/OMfxev14vf7GBjoZ9++/dx33wMsW7aE66+/lgMHD/Gtb9/Bjp27OHL0KP/8tW9x+9e+yc6duxAEgRtuuJYrt1zBI488xj33PcCmjet533vehWVZPPDgw4RCQW776If5zU99jFAwyN2/uJennnqar3/z24yMjvHc8y9w+9e+yT9//Vu8/PKe1vPlOA7VfI56qYDzGsJMiiygKSJBj0RPXKNat7Ft2HGsxJfumeSZgwXiwZPhIAHXZdqb0Pj5tgwvHiny3g0Rli3wAPDkvjxf/PkE+8YrJE+hcxyHZw8Wuf3BaX7xYpalXR4+c1NbK5YKrsWqKSJtIYW+hMvL2SCJAgtiKrIkIABeTaI9rCCJsG6hjw9sivL0gQJ3PDGD35AYbDdQZZFy3eZnz2f4yv3TZEsmEd/JfSRLAoPtOgFD4o4nZjg8VeWjW2K0hxUG23VG0jWmcyfdxLWGje3Aki6DT9/QxtGpGt99YoaYX+EP39WBoYlIosCyBR5sB775yDSW7XDblXFEAe54Is0PnkqTKZp8+9EUX/z5BD94Ko3tOFy60Mcnr07w4pEi33okxYKYxu9cl8TQRB7bk6dYdZWM266MsW6hl3tfynF8psrXH07x8K45hmdq/N3dk3zx5xP84sVsy1NwApV8Ft0fRHpFV70zwRuJs/EjnyaxcAmHnn7wguUhvJUwzwIWJYnO5Wtp1Kr4E+1c8fHfJ9Y/xIHH7qVayLV+o+gGVr3OM9/7MpP7dyKIEsnBZVTzOXbd80OqxTki3X04ts3s8UMsuvIm8jNTTB3YjW1b1IoFbMduuVuNQJjCzBRHn3+MylyOF378DQRBRBAFAokOcuPDNKqV81rQaHaYv33sCyyML+LTl/8e3932TVKFKdfNfC44DkdnD/PQgftI+ttY37OJmDeOJEgsSizhkYMPcPeen+E4Ns8PP4tpN6iZNWZLM9y89N1MzI2zc3x+oliqOE26NENvtJ8F4d7W50E9zML4EHumdvPg/vtI+JMsSixhMLGYXRM7sB2LZ49v5eGD97MkuZzFyaV4Ve85l2A2qkyO7qB74HJmpw8Q71gCQKmQYnLkJXoGN3N034N0LFhDrVogkzqEP9SJonlZffmnWLbuQ+ieENXKHFOjO7Etk/TUfkqFFEOX3HzG8x0/8BiH99yPZZmEY30YnjClfOpV6SRZxbIaBMPdGN4IZr2MP9je+l73hNl803/FwUE3Qq6VPrbz3PfvDJAVjWhikOzMEfa99BMs28QXbKO7fyMAjXqZieFtVMqZlhv8VJSLM+zZ9iNKhWn8wfaTfDrAq7jLBhcOMD4+wd/8n7+nWCyiaRqGoVMsFrls00bSsxnu/NFPSKVm6O/vY9mSJfh87r09fnyEb3zrO3i9XtavX0c8HmNmJk0qNcOqVSswdJ0nnnyqJSTD4RDr1q5mbHyCnbt20zAbLFm8iKFB10o5dnyYb3/nDv7LH/0BpmnyF//fFxgeHgFgOpXi1z/0AY4fH+aJJ07PXajks2z97j9gW+Z5teA8gfdtiLCm30vAkPBoIl++d4rZQgPbgclsnf6kzqre+XvZsuH+HTnufCrNih4vGwZ9BD2uG3ZkpsbITI0Ng34Wtp90G4uCgGU5xPwKPXGVat2mPaxCy40PH9kS47qVQQIeGVmEbz2Set0JV4PtOtmiyVfvd60+jy4x1OFaeqblsH+8wlSuwfs3Rk+jrdRt7t+R46fPZShWLZZ0GYR9CpIoIApCSzE/Fcu63Vag339yhh3H3RDOJ69O0BV1w1zlmsV3Hk2xe7RM2KvwznUhbAd2Hi/RsBxqDZsXjxQ5lqq1rsemRX6yRZNdx0tkiia7hkusH/Th1yUms3W+ct80X/hYDxuG/Pz1z8bZdqSIZTtsO1xkYZvO2gEvTx8oYFqvfhFtyzqvcjzHtqmVCgiiiC8SRxCEC5Lb8FbCPAEsCCK+WBLDH6JtcBkzRw9yaOuDjO95CctsIKsay294P71rL2f05ReY2LcDAFESCLV3k5sapZxNo+gGAxuvYm5qjEatii+awKxVsG0bWdPxx5KUs2lKszOohpdgspN8aoJSM4u0XnY3m6xq+GJJjj67D7NWcR+sc9wg27GZLkwRMsLgOMwUU0wXpoATSVhOa7MH9CDyKRaPA5RqJWzHxmke6wQkQUIQRPehdzhjJrMkvracNkmQsGwT27GxbIu6WW/Fny3bolQvuXFMx4JzpnOcsoozXKNGvczwoSdY/47P0tGzjrYFq5kceZFqOYc/1IltNZiZ3Etm5gj1aoGZqf3k0mfuQ30qbNtsxYXPN37T3b+JtVt+h9npg+RmhwnHF3Kq/8k260wMv0ilnKVSyjA9totSIdVaHtB6yZ6yahBcSx5BaGZSCwiChKzo2E4zzuyAbTXOu1y3Ua9QzE8DTiv+C9ColSllZ9F9AQTm3x1BEBAlsaXR12o1arWaG8tV3Zi5bdnYtk25XEYQ3RewA1TKZWq1Oh6PtxXHPRWCKL7iRSWgaRpLly7m9z/3n91zOrB9x44WzdTUNPVGAwHI5XKnHVOSX33fmvXqa7J+AY5MVXlib55KzebwVJUdx0rnFHqm7TBXduOmlu2c125f0uW6YTMFk+3HinRGNQxtvlPv8GSVF48UyVcs9o5W2D/uKvKO494zQeCM75UTcWWfIbp7CteaFoSTsVTLcs5bYJiWQ6HiXkfbdtzTOQ6T2TobhvyEvBK5UjMPosmOyxtuXNtxhbht04qTl2t2y/17pqxpUXDd9KdCkQX6Ejr/6Ya2Vlx771iFejN+nC2Z5EoWiaDCbMGcl2zl8ia88tGbB18sSSWfbfU3PxvKuVme/+HXEASRzuVrW8/A2wnznjwHp1WHdfCpBymkpwm1dxPrG2J2+DArb/l1Fl52DVMHd+OLJmhfvIJyLkNxNkUg2YlVr7uJWus20za0jOd+8M/kUxMU0tP0rN5Ez5pN+KIJui65lF33/hAjECI+sIRwZw+zo0cJd/YwNzV+Wow3kOwgMbAERTeYPrz3vK3hM6FcL5PwJRiILaQ71INPCxD1xpDFV8+QdnAYzh7n8r7NzBRTTMy5scpMeZa5ivtCq5pV1nSt40j6IMVakVK9SKowTdQbw1A8+DU/siiT9LehSArlRonR3Aj9sYUsbbuEnkgPbYF2Hjv80Kvy8cticnQHlVKGwUtuIRDu5PDue7GaSUqmWWP40JOMHJ5vCYmSgi+QxPBGkGQdVfUSivRQq519IIYoyfgCbU06DVXzEor2UKsWCEV7adQr7H3xx4iSTFv3ShTVIBDuQhQl6rUiB3bdRSE3cdpx6/UShblJ/KEOYm2LcRybQm6CcnEWWdZJdq8kUMoQjCygXi0iyRq59HEGll5HR886zEaVtu7ViM0kKE33Y3giBEKdCIJIINgBtk1+7vRzn4paqcjM0f30r78SbzhG8ZSyi5HRMd77nnfxiY9/lKe2Po1lWtRqNY4eO86OHbu44rJNbNhwKalUivWXrmN4ZJRy+dx7utFo0NuzgHdctYWpqWnK5TJjY+O8tH0nixct4qmnnmb3nr0IgsD4xASO45BIxPnNT32c48eHsW2bT3zso/zvL/xNawhFuVLhys1XsHv3HrLZHIVikZERNwau6AYrbvog2fFhjr/41HlXO7x4pMQ3Hp5fDy0KEA0oeDWRqF9GkQV6Ezp102Z67tWta0kUSAYVVEUg5JPQVZHehE65ZjHUoePTRf75oVmOp6q0h1WSQYX+pEbDdLAdN075/SdnTlO48hWTQ5MVNi8JsLbfS7lmM5GpY1oOpZrN5qUBVFngkgUedFUgGVSZyDQIGBK3rA2zf6zC2gEfejNRSRYF2iMKYa+MRxXx6RK9CZ25svmqAst24OFdc9y4Oszv39LOnVtnKVRc4bdzuMSxVBVRgCuXuTH0d64NU6xaTGTrdEbO7uK1bQefLnHj6hCP7c5jOw6j6To7jpV476URdhwr8diePLbtMJNvkC2aGKrIp65JYDsOj+6e43dvSDKRqbeUllrDJh6Qef/GKLuHyzQsm+Op2snEMFmmd+0VzE2Nt4yoc0HRDLyROKVs+m3Zw2ZeIw7Htiln0kS7+xncfD3967cQautm6sAubNtm5S23cvDJ+zn01AP0rLmMRVtuRFY1JvfvYuUtHyLU0UPX8rU4ts2On9/ByI5ncWyLRrVMx5LVLL7qZuJ9Qxx+5mFevu8nDGx4Bxs//Gl80QSBeAeBZAdjL2/DrJ9I9hBQVJ2hzTcwsPEq2hevYHTnC1SL567ljXiibOy9nEcOPUjxFGFh2RZrutextns91UaFiCdCT6SPlyd3sjA2xFw1x+7JXXhVH2u7L+Xo7BGOpg8zXZhkQaSPLQPvYFPvFaxbsIGZ4jRjOdedZ9omKzvXsKnvCjb0XAYIHEzt59Y1v8GNS95JT7iPgB5gcdsyuoLdvDyxg3QxxfL2S7h66HqG4ot5aWwb9+67C9uxuax/C0fThxnOHifijbK8fRV7pl5mKj/5qmsORXOS7cAAACAASURBVHuJtS9h7NiztHWtZGZyH5FYP8X8FNPjL+M4NrKss3jVuykXZ9n13Pdo1Ct4/XE6ei9lauRF5rLzB1YEQp1cccOf0LfoHfiCbXiDSbr7NyIKIsX8VJPuJeayo4SiPcTblzByeCuyrM+nC7TR3efSTY3toKNnLX2LryHRuRyzXiYc7ycU7WVudoT2nrUc2ftAqwTqVFhmHUlW6R26ioXLbyDZtZLM9EEyqcPE2hYzsPQ6YskharUCkeQg9WqxmVS2jIXLbyDReQmKamDbFod230Pf4qtZ/47P0NW3Hs0IkuhYSvfCy5gY3oY/2EYw3M3hPfcBkOxagaYHOH7gMcChUa3Qd+kW/PF20scPufvWcfts+7xebrrpBm68/jpuuP5akskEjzz6ONPTKTo723nfe97FNVdfRSab5av/9DVGR8dYtWIF4XCIBx96BEPXuWzTRorNqU3gCuDVq1dy8003cP3115BMJnhh24sMj4ySTMS55uor2bL5Ci6/fBNTU9PsP3CQWz/4ftasXskX/ur/sH37Tm688TrCoRB79uylYZo0Gg0u27SB66+/huuvuxpd03n2uecB8ASjrHv/J5BVjfE9L2GfwSI/FaIocO2KIKm5Bi8cnu8h8hoS/+m6JL99XZJVfV4SQZWNi/ws6jR45OU871wbZu9omb1jFWIBhc1LAzx3sEChYvNf3tvJR7bEWdbtoS2kcPmSAFG/wkO75ljR4+W6lUE2DvqpNWwWxHXW9Ht5eaTM+oU+9o1VWklZZ8LmpQE+sCnKpkV+RtM1DkxUiPhkPrApyvpBH1O5Bpf0eBEE+LfnMyyIa7xvg/t7vyFiqBL378ghSwL/89Zu3nVphJ64RkdEZfNSP6IoMJaus3lJgOcPu+7gnoTOmj4vD7+cZ99YhdRcg8uXuHzctDbM+oU+dg2X2XW8jFeX+MCmGDevCaMrIv943xS7R8rEAjLXrQxx97YsubLF0i6DwQ6D+7bnKFYtGpZD2Cfznksj3LI2zPqFfl46WmLX8TIIAtesCHLLmjDvWB6kWLXZfqzEOy4J8oFNUf727kl+vi3LlqVB+pI6zzRdzvmKxaJOg3evC/POdWGWdhk8fbBAuSGgGB761m5m8TtuZv9j9zR7Npxbosq6wcDGd9CoVhjZ+ezbrpXxGVpRCmheH6rXhwCY9Tq1opt57I+3UcrOYlsmnlAUSVZoVCuE2ru5+jP/nR13/wsj25+lUS1TLeZbbh1BFDECYWRNxzZNasU5GrUqquFFDwQ54X60GnXK2fQ8t44oy3hDMQRJwmrUqcxlz+smiYJIzBcnXZyZ50oWBIGwEUGWZEq1Eh7VgyAIzJbS+DU/tuOQr861fldpVKg0yggIeFQPhupBEiQcHPLVPNVGpXXckBFGkVQEoFwvUagVCHsiqNJ8bbVhN8iWMwgI+LUAmuKWipTqRcrNZKOYN065XqLcKKNICiEjTKGap2q+eiaqrOjonhCVUgbDE6ZWLaCoHiyrTq2SByDRuZzLb/gTJoa38dzDfw+AJKkYvgi18hyNxnxLTBBEvIEEgiDNX0O9TKNWmkd36vlty3xVulplDsMbRpJ1bNvEalRRNC+2ZVIpZ/D4YpTyqVd1aUuyiuEJI4gytm1Sq8xhmjV0PYCieVulULJi0KiXqZaz6J4QimIgSjIrN30cXyDJPf/yOVTNg2aEXnEGh1J+GknW0PQAxbwbwlA1H7KiUy66oRJRklh4+XVccv37sW2LXff8kCPPPgq45T/hUAhZlkGAWrXGTNql83q9BIMBBEGgXqszm8lg2zZ+nw/DY5BKzSAIApFIGByYzbgDM0RRJBIJo2luCVe1WiWTyWDbDl6vl4DfjyQ192Y+T6FQJBaLIkkSMzPuuWOxKI7ttM4piiKxaBRVVQCBcrlMJptt3XtPOIplNqgW5s4rrhcPKJi2Q7Y4/xkVBIj4ZLz6/P1g2w5js3U6wiqFqkWhYqFIAomgQrZkUq3bxINKqyTmBGp113I+cUzbdihWLfyGhONAaq5BxC9Trtkt1+8rIUsCEZ+MropYlkOubFGqWng1kYhfwbLcY4Z8cut8Pl0i6JVQJIFf2xjl2pUhfvefjjIy41rgkjTf3C1WLQpli3hQIVcyKddsdMX1AszkG9RNtzQp5JUwVDfEVTdtciWLasNGkwWifgVZEqiZNum82SpnagsrTOcamJaDV5MIeCRSc42W29iriQS9MrLklkDNzLnnU2WBsE92r6kDhYpFrmy6a/NI7jFth5BXxlBFprL1Vggh5JXx6m4SWN10j5kYuoSVt/w6wbZOjm17ih13ff+8LWBRkln5zltZdu17mTq4mxd+9HXmpsbOi/Y/Ai5IL+iFl1/Lul/7JI/f/pdM7j9zqchFvHkQBIGu/k20da+io2ctgiDyxC/+gszM65sl+1ZDONZHZ996JEnFH+qge+By9m3/V3Y8/a1f+tiCKBJMdhJZMEBufJjM2Lnj5hfx1kTUr3D9qiA+XaItpHDdyhBb9xf4b3cMX7BOWm9F+GJJEgOLKecyzBw9gNV4bY0/NF+AntUb0X1Bjj732Lxwzn90XJhWlI7D9MHdFGamLsjhLuLCQhBEvP44gXAnY0ef4dj+R8imj7/ZbP27weOL0r5gLbKiUy1l2LH1Gxw7cGG6aDm2TW5y9G09a/rtgoBHYuOQn6hfZrZg8r3HZ7j7xezbWvgCFNPTFM+j6caroVbMc/DJBy4gR28dvOHTkM6WWv52TDu/iLceTmTNX9yrFx6nvgPc/8OrxQ4vvi8u4j8aTmvEcSGhqCqxZDu64TntO1XViLd1oOvn1zHlVwWiKGJ4vK1Wgm803UWcGaqmoenGGesnLzS8/gDhaPwNP8+bBVGU3L15lnKkM9OJr4sOQJZlfP4A8bYODI8XQRAIhMLEEskz3ldZVogn29HeYu+Li7iIs+ENE8CiKJFs7yIaS5xWviCIIvFkO9FYknNV/MmyQizZjj9wMlFG1w06F/TR0d2Lpv/7Ts/QDS+Diy95zS9k3fC8LrpfFfj8ARJtHa/rZSsIAm2d3XT19OP1+X9pXgRBoLO7j97+IWRlfoJbMBQhGk+2FB1Jkkm0ddLdO0AgGH5dAltVVNo6ut90ZVEQBGKJdnz+wGuiE0URUZSa/8TTroHX72dgaCnhyGvbm15/wKV7jXva8Hjp7hukb3AJ/kAIUXRr7A2Pj7bOBQwMLcXwvKLpjADBcJR4sv20GvCLuIi3Kt6wcYS+QIBwJMbk+Aj1VxRlB4IhwrE4k2Mj1Kpn7y8rKwptHd1MTYxQcBN5EUQRXTcIhCOYZoPU5PgbtYzTYJkNctlZKueZ5XeSzmzSnb2l4q8iBEEgFInhCwTJZtK8ntlXoigSjsYRJZFS8ew1xOeDUrFARSrPy4gXBIFoPIkgCuSyJyfcSLJMOJpANzyUy0XM1zjOby6XxR8MoekG1V+iBv2XhaKqJDu6SE2OUTzxMJwHTU/fIIbXh+M4mGaD3GyamemJ1tCFRr3OXC5DtfLa9maL7jXsaVlR6FzQhywrHDu0j2qljGVZOI5DanKcwlyWnoEh4sl2ho+enEplNhqkU1P4/AEkUTw5MOIiLuItjDdEACuKQrK9i2IhT2Z2fkaboqrEkx2Ui0VyZ5mfKooikViCQCiCpuuEIjE8Hh/1Wo3U1Djjo8fx+PzoukFHdy+iKJJJpyg3R8LJikIwFMHj9WHbNrlM+pwvfq/Pj8fnp5ifIxSOIisKc7kMhbkckXgSr9eHaZrMTE/ME8An6MqlIqGw24ZuNjVFrVY9Kx24QkPVdPyBILruoVqrkJ5+9VrfEzRef4BgKIIkSdTrdbLpFIqqEorGcWyb7OwMhseLx+ujXCqSnZ3BcRw03SAUjqCoOvV6jdnUFGazzaAoihheHz5fAEVVyWVmqderJNu7CEViiKJIR3dv63oW5nKAgOH1usdUVMqlIpn0DHZzcpMoSXg83nmdm86GSCyBKEmUCnki0TjpmSkCoQiObVMs5InGk4iSRKVUJJ2aap3H6wsQSyQJhMKYpknXgj5sx2Fmapyp8REMjwdF1Ygl2lBVnWJhjkw6dVZeTsCyzHnC4ARkWSEUjWEYXsChkM9RKhSIxBJouu4qCeUyoYi7JzLpFNVKGVEUCQTD+AJBEATy2VkK+Tkcx+3SpigqPn8Aw+vDsixmpsYJRWKEIjE03SAcjWN4vNTrddLTk5hmA1lWCITCeH3+5v2ZpVTMI0kShtdHfi5LqZDHHwzR3tVDo5mp6vX5sUyLTDo17/nQdJ1wNE6lXMbnD+A4kElPU69VCUfjLp11Ot2J/XliT2u6Qb1eIzMzjWVZBIIhvL4Aw0cOnKZE2LZFuVRkLptpeStOjflmZ2fIzr59MmQv4j8+LrgAFgSBSDyJoqpMjB6f734WBCKxJJquc/TQvrNqsYIgoigqhscDjttiUFFULNMdei9JEoqq4vUHMBsNvD4/mm4wfOQACALdvQN4fQFqlTK6x4uuGxw5uPesvPuDoZbiIAgCuuHB8PooFQvIkoyqaYRjCVRNZ/TYoRb//mCIto5uSsWCKxx9frcb0cixeXSapjNyCp0kScTbOonGEwComk4ukz6nAA6Fo3T29GM26liWRSgSQwAqlRK6buAPBFs8SLJMNJ6kWMgjKwoLegcAAcsyiSaSOLZNamoc3TBo7+zB6/e7o8g0nUq5hGnWUVUNVdWoVivIkowjnmznGQyH6e4ZwDRNHMcmFI1jNlwvgapqdCzoxecPYlsWqqZRPYvn4EQcUFYUatUK4WicuVyGcDROvValXCo294SXcCRGvVYjP5dtjs1T0HQDSZap1arIsoLjODi2g9uu0UBRNQLBMIqiEgxHqFUrr9sal2WF7r6FeH1+qpUyqqrhD4YYOXoIVdPwNePG5VKxpTDJisLEyDESbZ1E4klq1SqqpuEPhDiyfzeNRp1INE6yoxtBdPd/tVomNTmGoqotF7jjOO6z0NxHsizT1dOPPxikWi6jGR4Mj5fD+3cjihKyLJOenqRULFAs5PH6Ani8PirlEqqm44n6W89k80YQisRItHVSr9cwGw38gRCSJDI+cqwlYD0+P5p2Ch0nw0vxRDuO46AbHrKZGWZnpt3a+micSrlEsXhmC95xHMxG498ltn8RF/Fm44ILYN3jIZZoZ3Zm6rSXm8fjJRZPMjszfU63lWWZTE2MoqjuXNfjRw7QqJ+sLzM8XtfqnUmRTk3SO7AIWXGbCYQjcXz+IKPHD1Ms5FnQN4hyHtM5FEVFkiQKc1lmpidp6+gmlmxH1TSmJ8eYmZ6gf2hpc87ryReELLsN4NMpd839g0uQFVcAnEonn0IniiLxtg4SbR3MTE9QLOTp6Rukdg4Xp6KqxNs7qZRLDB89iGWa+PwBLNOiXC5SKZVYuHg5oiRx7NA+ZFmhq3cASZJItnVi2zbHjxxEkiQGFi1DVhQUVaNzQT+arjM+ehxZUmjr7KZer1GtVBgfPYbXH2BmapzU1MkWjbKs0N7ZQ6lYYHzkGB6fjwX9Q0iyjKKqdPUOoBtGSxHrH1pK+Ryue8uy0A23OcqJOcOyJFOq1ymXihw/coBQOMqC/sGT8WjHYa7pctYND1PjI2RnT3pXdMNA1TRKhQIjxw7hD4bp6O75pRLiAqEwgWCYkaMHyWbSqKqG4fVSLhUpFvLEk+309A9RmMsxMz1B54J+bNvC6w8Sb+tgYvQ42dkZ2joXEI7GEUSBYDhKx4I+5rKzZDNp2jsX0Gg0sG2bqfFRRFEiHI1z9OA+rFNc77FEG/5giLHhoxTyObp7BtAMN5FJ93iwLBPTbDSta6XpNamRTk2RnZ2hZ2DRvFi6AK4yI8lMTxwhl0mzaNkqt6kIwil082PwgiAQT7STbO8iMzNNdnaG/qGlVMolbMtClmVXIM/OYJ2lq5YgXhS+F/H2wAVNwpIkmWR7N/ValdmZ6TN819Vye55XOYEguHG3SnmeJS0IAh6vn0q5RDbjulaVpoWG4MafLdPE8HjpHViE4fGSmTl7ndoJy6qQnyOdcn8ryTKNep1qxRWKqupm3s7lMq1G+Yqi4vF6KRXy5LKziKJrjdVrJ+PeZ6LTdIN4soOZ6UmmJsawLRtFVc8ZI1ZUDa/X77oeGw0cx6GQn6Ncdl3voiQiyTJz2Qy1apVSqciRA3uwbRuPz0+9XiPe1kF37wCNpus6FHZd9WPHj5KbTbeUh3ozPq/rnuYA+PmxfI/Xh6pq2LZNW2c3Hd29lIsFioU5QuEY/kCQ8eFjZGfTrpJgmTRqZ2/SbjbqbqLQiaEKkivMT4QWBEHA8PowG43TFDxVVbFt+7Q47Qn+M7Mp6vUaSnN9tfOcb/tKCIJAMByhWilRaM4CrtdrzGXd7lKCIKAZHqrVCtnMDJZlMT56jKnxUXxNF7Gq6XT3LSQUiTWtQ5G2ji6K+TnGR45Rr9VQNZ16k0dJktANg1q1Mk/4iqKIzx9sKi4GPf1DeP0BMjOue93nC2BZNrrhJZ5sp6t3gFq1Qi7jKizyiX0/l33FNTMoFfMU8jlESUJWZKqVSsvlLysKhsc3j043PCTaOsikU0xNjCLKMqIktWLuJ4T6iX17JoiiiG54MM3zH5hxERfxVsUFtYCDoTA+f4CRY4fmWavgWgy+QJDhIwdpnGcSjIDrls3Ozsx3VzcFc7lUwjRNhKYLsjJbQkBAVTUUVcPnD1IuFZmeGKNYOHv/aFGSUBSVXHYW27YwDA+BUITCXBanOdXGFwgiiiLlUmEenayozGVncWwbUZSQJJlK6WQv3JN0Jz9zS5LkVhwyGA4jCPN/c0Y+BVfAnprYdmqsTJRkJFluxmeBpktPVbWmsuCjUi6TzaSZy2Zo1Osk/UFq1Qr5uSyqphEIhmg06i0Bpaju+DPzFR1uZEVBkiU8Ph/VcpnpyXHyuYzrsgyGqJRLrvtelvEFQ9Rq1bPO/HSgtW8Mr1uaYni82LbdErayrBAIhqiUiy3hdAKKqrkjzirzBbCquUpCpXwyP8Bs1M+ZAHg2qKqGZVuvqGE9KTF0XadaKbcULqu5TxVVQ1YUvP4A5VKRseEj5HPZVrhjYswdmuD1u27hE/tIkmQ0Taf0iv0hShKqpqGqamu/p6bGKebnmmvX0XSD3oEhLMuikM+RmhxvXTvD40VRVOZymdYxT8Shs5k0lmni8fkQBHHenjM8vtPoPF4fgigyl8tgOw7+QMilO6F0nYdbWVFVvD4/+VyW858AdhEX8dbEBRPAum6QaO9irplQcipUVSPR3kkukz6nIDwTNN3A5w+0knMEQUDTdQqpLLZltQSc2Whg2xb1eg2pGfeyLBOvz0+9Vj2rxXMipowA4VicRLIDy2wwc4rLVZLcMg5d94AjUK9VEUURRVGoVJojFBUFURKpnJJRepLOAAcaTf4EwX0BBsMRguEoZqOOqqrU67WW0H8lbNty5+5G4wiCiKbreDxeUtMTyJJMIBjGcRxkWUaWlVaClW1bNBo1KqUS6dQkoigRDEeYy84iyW6Jis8fINKMcdeqFRRVbSlLbpmIF0EQcRybcqlIoxmDLszlmMtlkGU38W12JoXUVES8fj/BUARZVlrrbrxaqzrHcePMiorXF6BcLhGJJVzPQZNGFF0FRDRlvL4AgsC8ZB5RctdhNxWPWrWCqhtYpkm1Umlabt55HorXg3q9htfnb7r/TfzBEOVikVKxgG4Y6LqHYjGPqmpUTnG31mtVbMsiMzNNrVpFN4xW4pQoiGiagRxViCc7sEwT23Fak5tAQG0KKEEUqdeqmKZJvVZDUVTSqSkss4HH6yYrmo0Gmq4zPTFCOjWNbdtYlnnSmyQIKKrazHcwkGWFcqmIqmmIkkSjXsNxHFTNLfVr3bd5dB6Xrlxslju5z4enua8dx0aUJARBOJm/IcuvOlo0FI4hK+p5J8hdxEW8lTFvGtLrhSCIJNo7MTxexoaPzivzEEWJZEc3uq4zOny0JRDOm0FJIhpvIxxN4A8EyeeyyKpCKBIjl0lTrZTxev34AgGy6RTVasV9IQaCxBJtBCMxFEUlP5c9a/mJZrgKhGF4CATDVEolxkePn1aa4fUHiMaT+APBllUWiSWYGhvBsiyC4TC6ZjCbmppntZ9KVyzmqZRLBMNRItEEqqqSnp5E9/jQDY9rTb+K/822bSRJIpZoc48XDFGplKlVKnT3LSQSTSBJEr6mVXuCf9t2ZxyHIjGi8SSBUATLsshlZxFwk2PC0TiNep1cZpZgOOLOqy0WsCwLnz9ILJEkFIkiShLF/ByNeg1ZVojEEkSicfzBEGajTmEuhyi5ZUfBUMR1dc+mCIVjONinKWinQlFUEskOMmlXYOiGh4mRYy3ry3FsJFkhHI0RiScRRbEV/3Uch0AoRDzZSSgcwWyYVKsVIvEEjXqNXMZ1r0fjyaZ79bUrg637YFn4gyFi8TbC0TiSpJDPZ/EFAvT0L0LV9JYgPlWYNBoNDI+XaDxJOBpH93goFfNUKxUMj49oPIHh9ZKZSSGIYlOwF6jXa4iSRCQaJxpP4gsEKRcLVCsVTLOBzx8glmgjFImhqjr5uSxy8zplZ9MU83PYlnXavnJsG2+TNhAKUcznkWUFfzBEZvb/Z++942TJ7sLeb+XQOc/05Ln3bmAlWCshCWkVVzkiLAxIIAkQvIfBItngj21swDyQCTLZHwyIDALs94wkQCCQUFgJxdVq8w2Teno6Tefu6orvj+rpO3PD3L3sLLvaW9+/7u2aqjp16tT5xfM7DSaWRTyRwjRj4dKlqTJxpfNsyyKRTJPNF1HUUCHQDQPDjNHrtnHsCYlUmngiybDfm80FB8mCmWyeuYUl9pu1WdZ+RMSTmRMpRRmLJ1haPU2jtntZ7NeMxVlZP0OjVqVZv/5a0eI0GxRBIAh8HNtBEJhZZ77nTd3HCo5tz2JwsiwjSqGB73ve1a0uwgmgVF6kUCqzcfYBJpMJnutclqUdXlcJLZIgwHHsqYWgYU8mM+1ekiTsic2BC+1K5/l+GPMVRQnf88KlJIqKKAjXjE2KkoQiK7M+cR0HPwhQVRVBuBjWdx3nSLxQEEUUWUEQRYIgwPNcPNc91MeE2czTtnmuN5skFUWdWWKe6x5ZuiQr6tQF6+O5Lp7nIYgi6vS9uW74ng7ctscpQgcZto5jI05jwPbUErvSmPA8d3a9MBShIopi6HqfPp+iqqHnwbFBCK3IsM8f3dZnF/skwPO8aV9K02TAkCAILnOVS7I8S2jy/fA83/dDl74kE/g+jmPPxtLBuL60r91pgtaBAJMOj3fXQZy6kt0rjOXDzO4bBFNPg4CiKjh26FGSJAlZVi57D5eeFwRB6AESJfzpez4YV44dHk+mMiysrCEKIvVqZbbMrDS/iKIqtFtNatWdY5O0IiKeLJyIAFY1HVXTGA8Hl33oqqqh6jrDfv+q28s93giCwMr6GTTd4NyD9123lR4REfHIUTWdeCLJeDRkPBqiGyZmLI41HjEeDSPLN+KG4URiwPbEukzLnx2zJ5dVwnqiIQjCLEHlIMszIiLiscGeWOwfmi+s8ei6q3BFRDwZeMxKUX4l4fs+2xs3xt64ERERERFPDB7T3ZAiIiIiIiIirswTXgArijJNWHliX1OWZV5wx/P45m96M4nEI9/xR5Zl7rjjeXzLN33jdZ0XEREREfGVzRNaAMuyzLe/49v4jnd8G6Z5clvBff0bX893fec7Tux6EBZeeM6zn8XL7nwJqdQj3y7u4Lw773zxdZ0XEREREfGVzYmagbIcFl84qAp0UMcWQJHlWe1ez/NmBR4O6ioLhMtkfN/HmRZjNw2D06fWkSSRWCyG7we4rnux+tV0mQYEuK43+11VVYLAx7ad2f99358VqFhYmGd5KVybDGBPl3kch6ZpeF64JOMgaevwM7iuy/v+7H+TSafZ2alcdp4sS4Awa//h8/70Cuep6sXlNN60TyIiIiIinjycmADWNI03vuF1vOLlLyVmmozGYz70oQ/z5//7/0PTVN76lm/i+c/7OgRB4KGHz/Jbv/U7bG5t8+Zv+HruuON5uK7LXKlIZXeXX/3130AURf79j/wwC+Uyoijynp9/N67r8tcf+lv+8I/eRz6f4x1v+1Zuv/2rAfjc577A//yt9+K6Lm/7treytLjAz7/nl4jHYrzr3/xrPvPZz7G5uc1bvuVfsbKyhGmY/M//8csA/MEfvY+//KsPXfXZVFXhP//Hf4/reyQTCfK5LGfPned//MZvsbtb5RUvv5M3vfH1mKbB2XPn+dznvwCEAvbH/uOP4vs+hUKebDbL5z73BX7113+DXq/HK15+J1//xtcTMw3Onb8wO0+WZd75HW/nBS94Po7j8PDZc/zxH/8p9z/w4Em9roiIiIiIx5kTqoQl8KIX3sEPvOt7+cxnP8+H//4jBH5AuTzPpz79j7zoBXfwrW/5Zj7+ybu49977uPMlLyaRSPCJT97Fc57zLF764hfx8U98kk996h953tc9F8M0uOuuT7O7W6Vcnqfb7fFHf/KnfPozn+W+++6n1+/x5n/5Jl7zqlfwgQ/+FQ8+8BAve9lLkSSJz3/hblrNFq977aspl+d55jOeRrFY4Dd+8700Gg12dipkMxnG4zG//d7f4/NfuJsHH3yIXu/q29JJksy/evM3sLa2yvs/8Jd88e57eNWrXoFpGHzx7rsZDAZc2NwikUxQnp/j//zFB4BQkH7jm9/E+voqH/qbD9NoNLnzzhdTqexy9tx5xuMxGxtbJBJx5ufnZ+cBeL7PzvYOe7UaX/vMp7O+vsbf/O3fPdpXFRERERHxBOFELGBZlnn+857LxuYmv/lbv8NerYaiKJiGwWAwZH19jd1qlV/65V9nMpmQzqS56czp2fmtVov3ve9/0Ww2efazn0WxUGA8HvMPH/sEL3/ZSxEEgY9/4pP0+2EhelVVtlqmHgAAIABJREFU+dpnPZN7vnwvd999D6Iosre3x803nUHTNM6eO8/v/cEf8sM/9P2MxxY//TM/R7Ua7sBUq9V5+tOfBsBHPvqx63rOu+76NP/nLz6I7/u86IV3cPvtX008Hmdre4et7R1Ora+xUJ6/wnn/yB//yZ+hqgpf99xnYxhhPHt7e4ft7R1Ora+yuLAw+3tBEJhYEzLZDCvLy7ieRy6Xve73EhERERHxxOVEBLAghEIx8AO8aSELx3HoHpQInO7vaU13nxkNR4iHSiaORmNsxyGAWRz3MKJ4NFdMIIw3f+2znsnK8hLutPrWffc9gDetd1uvN7EnNo5t02w2L6uuIwrCZTvYzI7JMsEV6uZa1sXdfBzXRZ7Gu69Ftbo328rvkVT5uf1rnsqP/sgP02g0+eIX76ZUKqAcKm8YEREREfGVz4kIYM/z+cIXv8R3v/PbecPrXsMn7/o0QRAwHI3Y2amwW6nyspe+hDe8/rX0ej1e+MI7OHv2kRW+6PZ6POdrn8W/+Be302g0GI8tKpVd7r33flZXV/i7v/8o993/AEEA2zs7WJZFqVjk2771W7jv/gdIpVJ81zvfwX/9qf9GsxUW7Xcdh7X1NV5wx/Oo1xuzdnqehxZPctudb2B/6xwbn/vEkbY865nP4BOfvIvx2KI8P8cDDzzIeDymVCpimiaZTBpN01hbW8W2bRqN5pUeCQiVikIhPz0vg6qps/POnDmNLMv8xfs/yObmFktLi6yvr7G+vsbW1vajrmEcEREREfH4cyIx4CAI2NnZIZFI8MpXvIzXvuZVvPxlLyWXy/LZz36evVqN1dUVXv/613DH857LfrvNe3/n99nbq/HVT30KiwsLfOhvPsxkMuH5z3suAB/7+CexrAm9fp9nPvPpvPpVL+dld76EYiHPh//uI5w9d56lxUVe/KIX8qIXPp/nPOdZbG9ts7UVJlrddOY0P/8Lv8gX7/4Sr37VK3Bch3u+fC8AruvxjKc/jVe/6uW8/GUvpZDP8ZnPfg7btolnCzzzX74DSVbY+sJdYSdJEq959StxPY+nP+12XvvaVzEcjPjN3/5dRsMR3/3O7+Ctb/kmbr3lZvK5PM997rNZW13ho//wce586YvZ3t7h7i/dgyzLvOqVL+f++x5gt7rHd7/z23nrW76ZW289dN7aKh/84F/ztKfdzh13PI/nPPtrcV2XpcUFnva027nrrk8zGA4f7SuLiIiIiHicOZHNGA4wDJ10Oo0iywTAeDSmtb9PEAQkEglSqSSCIDAej2m1wt+TiQRmzKReD7cfy2WzCIJAsxVuySeKItlsBsMwEABrMqFebwAQj8dJJhPIkkQAtNsdhsMhuVwWRVGo1cJt4AqFPARQq4f/F0WRfC6HpoU7y4wOtUcQRWKZPJ7jMO61gdC9/uu/8t/55Kc+zfs/8JcoioJlTWhN25jP5zCmS5oOcD2PanWPYrGAZVl0u+E+xvPzc/T7fQaD4VXP292thscMI9wScDQiFosRBAHV6t41l0xFRERERDzxOVEB/GTlQAB/9GMf53d+9w8e7+ZERERERDwJeEJXwnoi8fDZczPLOyIiIiIi4tESWcARERERERGPA4+5BSwrymXLiCBc63q1YxEREdePNCvNGnElLp1zJFm+6vxz8LePZJnhVe8nio/6Gk92wpLCN24fnUgW9NWIJ5LMLSxjTyY4tn3ZsfLSKtZ4jOPYV7lCyGXrgAUBUZSuuo73xkBAFMUb+PmvjDBd3/1PPVcUxXBh+wn1ayZXQFU1bHty9F6iyKWtFEXxnzymRVGkUJwjnkgx6HcfRYtPAOGJNTYFQSCRSlOcWyCTyzOxxgRBwPzCCplcAd/3L3s/qqaztHKK8XBw3cv+BFEknclRmiuTSmcY9HpP8sRJYTZ2r5d4MsXiyjqqpmFPJnjTmg43Co+ZAJYVhYXldQCa9b0jH6MsK5SX1wCB/Wb92MGpajpLq6cQJYnxKFx+E08kWb/pVnLFOSbWGHsyuer5T1Zi8QQr6zcx6HdvuEF7NQRBoFReIpsrMBz0r3vSS6YzrKzfTDZfZDjo47qPbgMMQRRZXj+DYcbodduz9giCwOLKOkYsxmg4IAgCdMPk9C23kSuUsCcWk4l1XfcKr2GQK84x6HUfddsfDYYZY2nlFJ7vMbGu7zl0w8QwTURRPJH17oIgUCiVWVheJfB9er12ODYCH1mWiSeS5AslhoP+ESEsiiLZfBFZUej3Oo/4fpIkUV5cpThfxrFtet0Oo+EAM55AEEQ8z521yzBjyLLymLwrQRDQdAPDMNF0HUmS8R6j+gGqprF6+hbmF5aJJRKMR8NHfC9JlFE1nVyhhKIo9PvdJ4zi9s/BYyKABUEgmyuSyeXZ3d5gYo2PHM8WSmSyeSpbF7AuOXYYURTRdJ25hRUG/Q7WeIQgCPi+jyCIpLI5HMdhNOhf0XIQBBFRnFa8uo62H2hzR695VKufWTCH/j4IgotWFAKCwBHN8OKxy5/z0vsd/F+45PoAoiSRzubIZPPsNxv4/vUJYEEQEEQR8ZDGKkzbdcX7HXPskdzrYh8IQDB7LweW5pW056PnHX/di/0uMTe/iChJ9Dr7QHCknde6ZvinAfniHIN+F2s8uupzHe4TYbpr1ZX6ybEn9Npt7KlAFQQRUZIoL60ysSwG/W44pgMfz/fJ5grY9oTRcHBd4xbAsSf4nsdkYh2dAC8Z04ef4UrjlkN3vfK3cPG6F8dReJ4oiqFQK87T73Zmz31p313pmoqqsn7TrcwvLqMqGu1W42IfC+KR72n2VR7znUCorC+tnWa/2WB749xMMQuCgPFoyLDfI5MvIkkS3c7+7Dx/qjz4vnfsOLiUdDbP/OIK1Z1Ndnc2GY+GCILA6VtuQ5Zl+t1QmKuazqmbw98GvaMei0u9B9cat1cimy+ytHqKTC5PJlcgkysyHg2v+D4u5eCdXtqXB+26tC0H1Qd93yebK2JPxoyGg9k5l3L4N9d16HXD5Z6FUpnOfvNxVR7/uTnZXemn6IZJcX6BVqPGsN87csyMxSnOlWk16wwHx2+AsLC8SiqTQ9M1yourzJWXGA0HbJx9kG5nn2J5AdOMcdNtX4MkSlQr27RbdYIgIBZPUJxfwIzF8T2f+t4urcbese0+0HrzpfmZZlqvVthv1oknEpSXVqlsXWA0HLC8egrf9+nsN1leOwNArbqDYcZIprOMRwN6nTaFUhlREmnWqsiKSjqbxxqP2Nk4x2RikUylKc4vousGjutQ3d6k3+tQKi+iGyaB7xNPpnBsm53N8/i+x/L6TcRicSRZ5vQtTyEIAlr1PfZ2t6/5blRVI5XJTvvVYL9RY293m6WVdRzHRhIlkpksvudR2d5g0Osyv7iMIIgEgU8qnSMIAipbF2YfztVQFJVSeZFUOosgCljjMZWtC6E7sFTGcWxq1Qr54hyabtBu1tnb3UGSRApzZVKZHKIo0ut02N3ZwJuWKdUNk2y+SDyRRJQkKpsXkBWF8tIquh6unb75KbcT+D4Xzj7AaDhAUVUKxXlSmSyiJNPr7LO7vYHneYiihBmLk8kXiMeT01rcV5+oBEFgZf0mhsM+nuuSyeWpVrYpL67Q73WYWGPmF1YQRJFup8Xu1uZMyJXKCxSK8+iGiarqZPMFHNth4+wDDPuhqzKRSJHO5JBkmXq1QqNWveZ7hbCMa7N+dIwLgkAynaU4V0bTDXzfo1WvMej3WDl1BkEQqO1W0A2DVCaHNRqys3UeezIhkUxTmCujGyae61Dd2ZoJKVlRSCTTpLN5TDPGYNBj68JZVk/fTCKZQdU0ltdO4/se/W6HytYFXNclkUxTnF+44jWTqQyyLNPrtFE0bTbm8sU5zFhoWWXzRURJol6t0GrsUZwrY8TiTCwrfLeiSG13h/1muOY/V5jDcWya9eoVPSKOYzPsd9E0/TKBMxz0Lvv74xAlKVTeBl06+0er4B2M3QOlUzcMVFWl295nfnEFURTZ2TyPphusn7mVC2fvZzwaoSgq+dIc6UwOUZLpd9tUtjeuaWF6nkdjr0q/20aSZU7dfBuxWGKmAFyNeCJJqbwUvh/PpVbZpr3fRNU0Vk7dTKfVIJ0roKka+60Ge7vb+J5Hu9WYfQuztgkC5aVVJFlmZ/M8nutevM5+k8ZelQNlr9/tsLC0iijeWDkMJ54BJckyxbkynuvQrFUv06DypflwcNR2j7WigsCn295nPBrg2Db1aoW9yjb7jdBlLckyqqohyQqdVpMAKJTmkWQZw4yxvHYGVdVo7FXxfY98ce6abU9n85SX1hgNBtSrO7iOTTyZmk1imq7j2DaCIBBLJAmCAMsaU9+rEADlpdXQZdVtk0xlUDU9/PA9n1J5CUVV6bZbpNJZ4skU8USK5bUzBIFPs7GHoqjkCiUAzHhiNgnvN+qY8QSJVBrHcWjV93Ach36vS213h1pl+xG5ycxYnNXTt1AqLxH4PqqmERCAIBCLh1aLomk0alUUVQvjl5o+nWhzqJpBu9VAVhSy+eLx40CSmF9cJp3Ns99q0KztISsKsXiCYb9Hq1nHjMWZKy9ijUfYkwm54hy6YTC/tEo2X6Kz36LbaVOYK6MoYdGUTK7I6ZtvI5FMEwQBihLu9TweDWm3GriuS6tZY6+yxd7uNhNrjCCKzC+ukCuE1xz0u2TyRWLxJJIkUZxfYO3MLaHCEwQ4zuSaE5yqaqiqhuPYqJqOKAhoug4BjIZDatUdRsM+2VwRMxabjmkY9Hr0uu2ZUNirbFPfq+C4DrphIssyshJOzL7nkXsE4/Y4YrHEVBD61Ha3GQ0HJFMZfN+jsbcb7lq2tIKiqvQ6beKpNIlkmngyxfJ6qFjWqxUURSVbCC3FMCx0ehoaEpEOEo2CgHarwWg4wBqP2N3eCL/ZVgPP84nFkyyvh5uwtOrheDh4voMxNej16Ow3kSUZTdcQRTH8FrJ5Eqk07VYD3/PIF0uAgBlPkEpnicUT7DdqYWGcYqhAy4pCPJmi12lfNUx1sP84J5AEZJgxDDNGt71/mfvc9z003ZjtJ54rlBiPhvi+Ryabxw98AkLjRdV1giBUnuYWlsgX5+m09xn0umRyoZJ4LbrtFq3GHq7rhEaI7zMaDY49R9N1FldPIUkSzVoVAYH5xRUkKUzuiyeS5IpzDPs9JpZFvjiHqqiHzjcIgoDRNFRIEGDbNql0FmX6d5IkY5pxbMvisKclCAICP+CyxIgnOSduASeSKRKpDDub5y9LrkplciSSaSqb53GvscG87/v0um2y+SKWNabZ2JudIwgC8UQSzwsnlX6vMxOUBGHiiyAKVDYuEACZfOGa91NUNdRee52Zpdlq1mfun2Q6Q7/bxXVdNN1AlhUmloVj27QaNbL5EoHvs7u9CYSa9cGHn8kXwbbZ3dogINROHXtCoTTPZDKhsrWBqoUVsVw3nAxUVcOyQosRBApzZXzfx3NdOu0W5cUVep19GrXdR/ReVE1jaTW0SM4/dN/0mbIMB30kSUJRVcajEZWtDRzHJjd1y4XHNCbWmMrmeQICkukMonS87qYbJplcgd2dzZki1mqEVbwOXFZz5UWGgz672xvEEyliiQSKopLJ5tnd2aTf7ZArlPBcJ6yals5QXlqhvd+kvlchX5hDVlSs8QjXdRiPBvi+R2e/Sbd90Z2YSKVJpjLsVXemXol5fM/D81yyhRLF+QXquzu0GjWW1k7Pxt9xOK6NphsIU4tCFCVkWcGyRkysMRNrjKyoxOKJWdwPAgb97uy3ZmMPa3TRvalpOkEQsLe7Ra/TRjfN2cT1T0EQBHLF0ALc2TzPxBrTatSRJAnHdbDGIzK5AgDVnU18P8BxbKzxmHxpDnsyYa+yNXM9uq6LKEksLK1imCYXzj6A67qcuumrmIzDxKZ+r0u+OMd4ODhijYuiSKE0h2M77G5voCgqQQDudI4wzTiGGaO2u4Mkh0JKUbTZ9+Z5DtWpS1fVNBLJNAihIuR5HrvbG4xHQ8xYAiMWA0HAMAxEUWQ8Gl5V2ZckCU3XCXz/utz9V0KfCqDJ+PKwmus4KKqGgIAZixOLJ6lVd1BUDUXV6OyHdepj8SSObeP7PvFEklQmR626Q7e9T744h+/7jyg2LkkS+VKZVDqLrMjU9yqXubovJZnKIkkym+cemrnOi/MLaHpo6EiiRLtZp1GrMr+4EvbbtF8lSSKeTGKNR0e8R/1eh/mFJeLJFBNrTCqdwfMcLOuoW18URQRJPLHkx68UTlQAq5pOqbxEt7M/jcEdPqZRnCsz6HWv6bo8QBAEVE1jPBziX5JopBsm42Gf4bA/u3evsw9CaOnJksL84so0u86mdg33rCwrGEaMantrFlM9sILMWBxV1WjWQmvajMURBGE2eSAIKIrCfquBPbHCkpE7W0CoVSqyQrezP0vyqO5somk6RiyGgMDy2hkUVWE0HFDf20WRlfB+9Sr2ZEIynQEuTla6bsA13KSXEosnMUyTsw/cy2g4oFCaBwLsyWT2PPvNGvbEQtXCD240daPJisLu9ga2PUE3jKmVf7zFfXDNXqc9+0idQ0pQGEcSabeaM2Wr1w2FoyTJpDM58sU5BAR2tzdD91a2gGPb7FW2CYIAIxbHdexZzEhWVDzPOyLUIBwrsqKQzubJF+bC7St3txmPhiyunqLb3qe+V0GSFcxYfJrYdvwk53s+shoqLgCaYeIHAePpvWVZIZFMMRoOZr8dICsKjm0faefBWJ9YFr1uB1GS0TTjuuKPVyKWSNLr7M9if77vzca3IIooikq3s8/ECsftXmULQRBmlurC8hqqqjEeDWns7aIoKqlMlq0LZ+l3OyRSaVRNYziL+UkoinYknnrwzEYsjihKLK2eRlEVrPGI+t4ughiGHA6ylRVFRZTk6bIqGVXT6O63GA0HyLKCphuMxyNkOUzg2W/WZwJDUVWs0QjPc5Gmy1uOU6YkWUbXTXq9zqOe/CVZnt7v8pwM3/cRJQlJlskV5nBdh267RWl+kclkjDOZTIVzDNexCXwPTTeRZYVUJkcuXwrHbWX7EbvGPddhMhmjqCl0wzjW4xiGdgxcx56NuSAIQmPBcUhl8ti2TbcTluxVNR3HsWd9e/DttBp1guBif9uWxaDXI5sr0u+0SWZy9Drty1bFhEqp9yTPFr+cExPAB24VURSngsq/5NgckixTq+5cVyermk6/25kmXl1MGNF1k9FogO95MxfJQbKXKIqz2NNw0MNxnMsSwa7UfkG8mKRy8DE7to2ihq5a13WQJIlkKhSIzkx7jyFKEtZ4dNkglyQZRVUvj3dPE0s816HTbjLodfF9D3tiEU+mgGB2vQM3qz2xZ30iCMJMKblWUpQgCCSmceTJZIyqaWTzReyppn3x+hayrFAslSEIGPS6oYAJYDjoIysK+eJ8KDj3r77TkyAISLJMmIgmTPtBQpQkHMdBIBQMjmMfyTwVBAFRkoCAiTWmUdsNvQyOjShJGLE4w0EP13VIZbLEEyk67YvtUBQVgmD2Xg76RZy6R63RkEGvy3g8wnUcNN1A03TazTBvIJPNhXW+R6NrW8COjaprJNMZHMcmncky7PcOKQPhhFTfqxxpiywrGGbsSOb6QX8ZZgzLGuG5LrIeulCt9vHj9nguT95RVHVq/XsYVx23wkxwddpNhv0BnucysSxyU9fvgTDMFUqzsQMgiSKKquK5F71V4bUFxGkW8OHxPrGs0OWdSOI6DolkGlEUkSQJebpOV5YVBv0ekiSRyRUwY3G2N86h6eG+2tZ4hCCK5AslNN2gUaseUdiP8y7ruomq6ZflqvyTuJivefTnqSs2npRIJFOkslmq25vTuUXFdRz8wCeRTGLG4mEikueFiYrAZDyi2etijYdHlNirIYginu/TrO/RbjVYXr+JRCJ97DmiJM3CPKIoIogi8WQKe2LhOs7UkBnPxq2qqozHo5miKkkSmqYz6HVnSXGht8ulvd9gcfUUi6unUBSVamvzyPd14I0bj4Y3VAIWnKAAjsWT5AolatWd2XKhA8xYgmy+SGOvck1BeCmOY5PK5gBmyRcI4URiNYdh0koytLYcx8FzPYaDAXohtHqS6SyGGWN3Z5PRMUlfruswmVhhkocoIisqhmGyce4hXNdBEERyhTmSqSzq1FUYT6TQdINkOoMky+FkbNv0ex1EUSSVzpJIZZDlMPZpTyYz7dVzHcbDAUYsjizJZPNFNF1ne+McqqrNPloI3Wy+7zOZum3cacwqVyxhxOIEvk+zXj3WNeV5HoqmUZpfDF16vo82jeuomo4sy2RyBUplHcOMsVfZYjQcUF5aBQHyxbnpEpEY1Z3NYy2zIAhmWbzzC8tY1hjDMPF8j9ruDsl0hky2gCiK5PJF9luN2drM8TB8p5IkY5hxMrkCo8GA9n4T33Nn68fjiST2xAo9CWZs9vEqqkp5KVxyMhz06bRbjMejmaKhmzHSuTzj4ZD9VgPf90llcqi6QSyWwHUcDDOGphvHjlXPczHNRLi8yPOJJ1JsXXj4Yuw4CDOwU+kcoiCG7t9mfapkTUhnc5QXV0AQwmxhe4KqafSnbkJJklAUhdHw6mP22oSZvulcfjbhmbH4LKkrnc3NkqnsyeSQZyq05M1YHEVWSWfDhL3qziae6yCKIsW58jQPQ8f3vGl+gj1zkaaz+Wm2u0ijXsVzXUbDAbFEAlk+GO8Gu9sbZHIFJtaYhx/4cqh8KAo333Y7oihOx2boTUhnwxBWs75Ht90ikyuE310qQzKdJZFM0WrUZt63AytLUbQr9o6iapTKi4xGg+taanQ1QsVPQFV1hhx9b0HgI8sKcwtL9Dpt9qcZ3s5U6ZhfWEY3zKlip2PGYljjMb7vISsqumGSzuYYj0ZhsuVVFG5RFMkX51E1Dc91UdTQXb/frB2rpHuuy2DQo5xZZWFlHUmSiMXjbF0It43VND0UuK6LJMsoqhbmKRwxtERyxVLYzuGQVrMOBPQ6+1jjeTK5wjRk2D10jjCN4SfDRL1HoGA8mTiRZUiSLLOwvIbrhu7Bwy9FVhQWV9ZxHZvdnU2C67B+D2JEZiyOZpiEMbQesiyh6Qbdduha03QdWVHo7LdCq8oaI0oisXgyjBGOhtOJ8urLdTzPw5lM0HUDM5ZAEKDdaoTrQR0bQRAxY/EwM3B3O3S1qSq6bqAZBp7rIUsS9sRiNBwgSRK5QolYIjGL/0ys8Uw58X0fyxqjqCqxRJgMNBr2GfS6aHoYuzpIODHM8L4HcSLXcRCmrnZt6goa9HtHXD+X4jo2mhZafIN+l1Z9L4xhEiozZixOEIBtW1R3NulMJ7HcVPCKgsBkYlGtbNGbuqGOw7FtfM/FTCTDDG8njJX7vk+hVA7XJfoekiwzGvRnk6UzdSmb8QS6YYbLFDptxuPhtC9iSJJMqxFm8pqx+Czu6tg2iqJgxhNIkow1HmFZYxx7gjcNHRy55miIKIhhzDAIqFcroUs+HqfXaR+rjcuKiqrrYRxPUUMX7aGkQ9/38T0P3YyFYZTRcBaLPEjcMuMJREEMs6k9b5pIVMe2J8iKgm6YtBq1a7rDj2NijdHUcEKXp6GQbmefbL6IGU/guaEHKVz6dFFojEdDFEXFTCSQZYXhoM+w38We2KEiY5hY4zABUZbk2bVd18VzHQwz7GvP96ZeKHsaF1eIJZLIssRw0GdiWSTTmfBbm1qhQRBgxuOMBgOMWIxEIszv8DyXWnVnNo6S6QypdDZcAuO6VCvbtJq12fzjug6xRJJ0Nos9meB67kwRiyeTLCytomp6uBxy9Ohc/RAqZalMlng8OS0q4V6cC4OAeDLFeDikurM5EzTONKyjaTqd/Ra97j6mGWcyseh327iee2jcuvS67WMVQ1GSSCTTJFNpdMMEAfabNZq1vWsuV7TtCbIkY8YTBH5AbXebbjuccxLJNINel9FwgKrp6LpB91BbDhKoYvFwZUKYiDcMY/FmjEw2z2jYp7q9ieeFGeGGGSNbKDK3sEyn3QyTAm+wGPCJ1IKOJ1KUyovUdrcZXOLKicUSzC+tsFfZuuxYxOOPomqcuulWxuMRm+ceOnJMEEVuue12Bv0eO5vnbriPI+LxRRAEVk/fjKKonH/4/iPWkSCKLK+eRjcMHrzvS1e1CM1YgrmFJXTdYG93i/1mg0JpnkKpzHg8olnbPWKRPVqSqQylhUUkUWZ3e+MR57s8GZFlmVQ2z1x5iYk1ZvvC2VmBGVXTWFm/CUmW6bSaNGq7N2RBoRNxQY+GfTbPP3TFpRvj8ZCNcw/ecK6FrxSkqbt9MrWujxyTJCRZYmJdHtuOiPjn4CABzHOPTs4H2csTyzo2eWo07LN57kEk+WIlqP1mnW57H2+aCX+S9LptRsM+oiThOo9N5amvBCRZZn5xhWQ6E675rVWPFAFxbJvNcw9Ns+udG3Z+OREB7Pv+VZNWjjsW8fjjei716g69K2Q1i6JIrVph0H2cawtH3LC0phnOl4ZXAj+g1axP15MejzdNOrva/08a13XhMSr7+JXCQXGOdqtxRc9nmONy45UQvpRoO8KIiIiIiIjHgWgvwIiIiIiIiMeBJ7wALpfnWSiXT3Tf4GKxwNLS4oldLyIiIiIi4np5QgtgRVH4zm9/O9/5HW/HNI0Tu+6b3vh6vus733Fi14uIiIiIiLheTrQUZSqVolyeQ1NVbMdhr1qj3ekQBAHFYoFSqRiWJ+z12d7ewfM8SqUi6XQa3/OIxUxGozGbW9uIoshTbvsqFhbKQMBTn/oUxqMRzdY+OzsVRFFkrlQkl8uFZRTbbXZ2KkiSxPLyErIscf78BURRZHVlBc/z6HS7LCyUWVpapJDPc/vXPBWAyu4ejUbj2GfL53IsLpbxg4DhYMjm1jau6yLLMisrywCoioKiKkee7/SpdWzHwTAMdE2le+hYRERERMSNy4klYc3Nlfi+f/1/8YxnPI3AD5BlmU9MPJsFAAAgAElEQVR88lP8wnt+iXQmzQ+863u57bZbAWjvt/mF//4r3PWpT/Od3/E23viG1zHoD0inUziOy7t/9hfYqezy4//5P1AqhkK7Vq/jui5//aG/5Xd/7w+59dZb+Hc/9P0sLJYhgJ1KhZ95989zYWOTt33rt/DSl7yIn/ypd2MYBj/y736QP/3T/8X2zg5vf9tbWVlZRhJFqtWwWPwf/NH7+Iv3f/CqzyaKIm98w+t453e8HUmSGI5G/P4f/BF/9uf/L7lclp/88f9EPp/HsW1M08T1XP7bz76Hz3/hbn7tV95DLBbDtm2SyQT2xObdP/sePvu5z59Et0dEREREfIVyIhawKIq87M6X8MxnPJ2f+4Vf5J4v38stN99EPp9nNB7zute+ivW1VX7iJ3+abq/HD7zre3n9617NXZ/6NACaqvJTv/xrbG3v8GP/4Ud58YtewLt/9j38wA/9CD/8g+9CFAXe84u/ymAwYDy2kGWZN73x9YiSyA/+0I/iui7/9oe/n9e+5lX80q/8On/yp3/OmdOn+J7/+7vQdY0vfeke3v+Bv8SaTLj//gd553e+g2KxwE/+1M8AMBweXwXH933++kN/y7333kexWOBVr3w53/D1b+BTn/oMY2uMIIh0Oh1+8qfeTSxm8sM/+C5e8+pX8vkv3A2AZVn8zLt/nuFoxH/9iR/j9a9/DQ888CCD4fDY+0ZEREREPHk5EQEsyxJPue2rePjsOe6669N0ez0qlYvb5OULeeqNJn//kX8A4BOfuIunP/1ps+ONRov77n+ATqdLvdFA0zSCwKfRaIbF+wWBZrNJvx/uuKKpKqfWV/F9nxe/6AUIooCuaRQKeRRFptvt8d7f+wN+7t3/D71+n9/8rd+h2wvXojUmE4ajEa7r0mhcfUOBo88n86IXPp/nP+/rWFpaJB6LEQDxeIyxNSYIfLa3dtnYCLcivPvue3jqU2+bnf/Zz32Bhx4+iyiKVCq7rK+tYphGJIAjIiIibmBOLAlrOBxRKhYoFPKXHXMdF0WRSSQSqKpKNps9srDedd1jdwIzTRNRlI78NpnYLC4uMDdXQtM0vvile/jYxz/JZLpj0PraWrh3bSLBrbfegiQdPV/XNDTt8iLtgigSy+RRDXP2221fdStvf9u30uv1+C8//lN86G8+fFkFHTNmIkkisixjGMZsIwWAQj6HpoXb1imKwng0jmLAERERETc4J2IBu67H3/39R/m65z6bd/2b7+Huu+/B9wMqu7t85KMf4/4HHuSVr3wZP/Jvf4BOp8MLX/h8PvShD1/zukEQsLGxyTe++U284+1vpdPusru7y9/+3Uf42w//PTfdfAY/CGjUw11tzl/YwHEcvvqpT+Et3/yNvP8Df0UymeDtb3sLD589x7lz5wHodrrccsvNvOv7vodGo0lld5eP/sPHsSyLeLbA133b91F98B7ufv8fAxCLmWiqiuf5PPWpT2F5eYlkIsFLX/IiPvCXf40gCJw5c5q3vuWbEUWRZz3z6Xz47z4ye47bv+arefM3vClMyjp9ig9+8K/o9R7NLjcREREREV/pnMhuSEEQUKnsUqvVWV1Z4fTp05TLcwyGQ7785XvZ2t7BcRxuuflm8vkcn/r0P/KHf/Q+hsMRiwsLyLLEJ+/6FI7jcPrUOp1Ol89/4YtMJjbV6h6JRJwzZ86wtLTAeGzxmc9+jnPnLzAcDjl1ao1Tp9YplYqcPXuO/f19XvHyO+kPBvz2e3+P+x94kPW1NVRF5Z4v3wtArV4nnU6xtrbK0tIi4/GYL91zL47joBox5m/5GobtJrWHw79vtvbRDZ2bbz7DXKnIZz77eSRJolQqcvfd9/DMZzyd4XBIzDRZW13hi1/6En/yvj9nPLZ4zatfwebWNol4nJtvOcPnPv9F/uR9f8ZgELmfIyIiIm5kolKUj5J8PsdP/Jf/xObWFj/9Mz935Jiqqvzar7yHj33sk7z3d3//cWphRERERMQTkSd0IY6IiIiIiIgnKyfigr6RCYKA4XDEgw8+fCTzG8L9TG3b5r4HHrxmoY+IiIiIiBuLx9wFLcsKvu9dtiWhIAhIknzFYxEREREREU92HlMXdCyRZHF1Hd2MXXbMjCVYWjuNfmi5z9UQRBFBEC7+XxAQRfFEN2h4ZAgI/+z3vDqXPv9Bvxzuq8caYfoeTrpfBEEgmcqQzl6+rO3RkExnyWTzj8PYeXwJn/fK40JRNfLFOTT95OqtR0REXJsTrQV95MKKwlx5icD3sUZHK03JskKpHO5GZE+O35RZ1XTKSyv0ux1ajRoAsXiCxZVTAFS2ztPv/fNsGG/GYsyVl2jUq/SvsIH9PyexeILy0iqb5x+a9WGuMEdxfgFrNGRr4yyu4zymbRAEgfLiKplsDtuesLe7Q6/TBh69U0WSJHLFOTRdZzTsX3OcPNL25gslNF1nOOjfMBuCi6LIyvoZuu199luXh0JMM8b84gpCZZuGNX4cWhgRcWPymJgBgiCQzuQwzBj12i6+f7ToRDqXx4zFqFcruO7VhYQoiiiKQjKVvWjdiSKTiUVnv4lmGMST6ataw4IgHjr2yKzCw9b1YWtSFEV0wySWSCKK0mWW5uHzDn6/9LerWajXa0WKokQsnsAwY0faMhz06HXbpLM5FFm58jWPtOmR3U+4pP2H+7rX3ae2V0E3TPLFEpJ08djBORfbfYVnF4TZ83Oor4MgoFnbpbJ14YjwnfXlJX19bPtn/S7SqFfZ2bqA49hHjguH3vn1WsdX6pcrjYNrnXf0ucSL/XLknMvbeHhciZf0pTAdt/FkGkk5OiYOrj8eD9nZPE+307rsXtfyNh2054nkGYqI+ErhMbGAdcOkOL9Aq1Fj2O8dOWbG4hRLZVqNOsNB7ypXAEmSWVheJZXJoeka5aVV5spLjIYDNs49SLezT3F+AdOMcdNXfQ2iJLFX2aLdahAEAbF4guLcAmYsju/71PcqMwv6asiKQml+kUQqjSSFXdPZb1Ld2WTt9C3EU2lUVWNl/Qy+59HrtqlsbRAQkCuUyOaLyLLCeDigsr2BpuksLK8iihKNehVFVklnc1jWmJ2Nc0wmFolUmuLcArph4jo21Z0tet32MX1rsLx+E7FYHEmSOX3LUwgCn1a9xt7uNtZ4hO/7zC+uYJgxHMdmZ/M8o+EAURRJZ/Pki3MoqoY9sdjZPM94dPU1yYIgML+wjCAKBH5AKpMjCHx2ty7Q63bodzsMB30KxXmciT2L5wuCQHGujGHG2Nm8gCTLrJy6icbeLu2pFaZqGulsnlQ6i6Yb7FW2GQ56rJ6+GUmUGA76bG+eO9KWlfUzTCwL3TQxYwm6nX12ty4cW1kslkiyuLyOJMsM+z12tzcIpqXXBEEgkyuQK5RQNR0BsO0JG+cevKbVLYoiZixBJpcnFk8gCCLnH7oP13VYXjvDcNinUauSzuTIF+fY3jiLNR4jCAJmLE4mVyCeSCLJCuce/DKJZJp0Nh9WhRPAnljouhG+v9EQ04xRnFsgFk/MxvR+s44ZTzC/sMRw0CeZyiIrMvVqhWZ9j8XlNTK5ApquU15coTS3wHg0pLJ9gVxhjkw2j+d51PcqR543kUpTml9kPBqRTKcJAqjubNBt7wOhhyKeTJPNFTBjccbjEecfup+T8H5ERNwonLjaKkkyxbkynuvSrFdnEx2EE1a+NI/nezRqu0eOXUoQ+HQ7+4xHQxzbpl6tsLe7zX6zju/7SLKMqmnIikKn3UQACqUykixjmDGW186gajqNehXf98kX56/Z9my+RKE0T7/boba7Q726Q78XbqfY3m9ijYaMR0N2tzfY292m3Wri+x7pTI75hWVGwwHtVoNkJkuuUMS2JzTre/iBz1x5CVXT6HXbpDJZ4skU8USKlbUzAOw3aiiqRq5QOraNjuPQqu/hOA6Dfpd6dYfabtjOg4ldlCQEUZhNzolUBoB0Ns/iyjoTy5ody+QKx95PVlSSqTSZbB5dN+jsN1AUlWz+YjsN3USSZUajweydyopCOltAFCVc10GWZWLxxMzyTKTSrJ+5lUKpjO/7yLJMEPg49oR6tUKn3SKTK2Ca8SNtiSfTZPNFHNtm2O+RzRWIxZPHPoNtWTRqu/S7HVKZHLHExb/XdYOl1VOhQKvusLe7Q6tRw3XdY64YCqDi3AJrZ27BMGMIooQkSQQEmLEEiVQaz3UJfB/dMFE1DcdxECWJQmmetTO3Ek8kCabXAtDNGLph4rkOphlDEiV0I4aqaWiazsqpm1B1Pfx2CCjMlZEVBV03SCTTJFIZet19fM8jV5wDoNdpM+z3sG2bWnWHvd1tWo0a9mRCZ79JfS/M3M8V5mbPJggCiWSaeDKFGY+HY1NRyOaLSJKEqmksrKyzsn4GSZYRJHFqcEfCNyLiejhxCziRTJFIZahsncc5VA8ZIJXJkUimqWydv2Z80vd9ep02mVwByxrTbOzNzhEEgXgiief57FW26fc6xBOp0OUXQCabRxAFKhvnCQLI5Ap4jyAeejARuq7DaNhnYl2s2dzvdsgX5xgNBzTre7Nz5OnE1Ou2qWyeR5Jlkqk0um5ijUd4rksmX4TAprJ1gQDwPBfHnpAvzWHbEypbF1A1jRxzx7rkATzXpdNuUV5codvZn02gELoUDcNkPByys3kBgHxpnsD3UFSNQmmeXrdNrbqNYcYhCHAd+2q3CvtEFFFUlYkVWssBAclUBvGQq9lMhF6G0XAw+01VdQwzRqMWts8w4wR+gGPbaLrBwvIajm2zef5hDDOGGY/jug6u69Jq1EimMxTmykf6QzcMJEmi2Wqwu7NJNlcknkxdFuK4FNue0GrUphZ89kgdb0EUESUJz3WxxmMm1vgRxYaz+SLF8uLM67K0ehpZlvF9n3giie97DAd9JClUCB3bDsdCrsDcwgqNWmihzi+uTF28EoZhMhoOGI+GKKrKYNAjnkzhuS7ZfDHczGMzdJ9nckU8zyXwAxRFJQgCGnsVup02um6iqOFv3W6bZDqDPbGoVSsEh1YcDAd9JpZFKpO9bCWCpun4nsfu1gVGwwHZfAnPdREEIfQSJdNsnn8Ye2KxdvqWE4nRR0TcaJyoBaxqGqXyEr3O/sxVdfhYca7MoN+dJupcG0EQUDWd8XCIf4mLUTdMxsM+w2F/dv3xaAQCmPEEkqQwt7jM6umbCHyfvd2da96v3azTbjUpzi1w+pansLC8hiwrAIiSiKyoWOOj7lpZVsK2jIazSSwUst7F82SFfq+DbU9w7Am725tMLAszFkdWVJbXzrC0eorRcDATWMeh6wYIAhPLOvK7JEooqkq3sx+6Lw0DQRBwnNAC1Q1zakndzMLSKu1W85pueVGSkBU1tJrsCZIkISsK1jhMrBNFEdOMY0+sI65sMxYjCHyG/d5MYXIcm8D3SaYyKIrKXmWL8WiIqmkEfsBkmgAkCAKZbJ7RcHBEGGqaju/79LsdfM9DUVV838MaXztxSBRFYskkjj1h2L9Yh3tijalsbaCbJqdu/ipWT9+MGU9c81rZQolee59mrUrgBxiGOesTM57AGo+wxiNkRcYwTezJBEEQyOaLjEcDGnu7eK6LYZiz51ZUDWs8nIYHJsjTZXqWNSYWTyCKEnMLS6yfuTUMA2xv4vsemmEwmVj0uh0kSUbTjZlAlCUJTTeYjMdHhO8BiqpimDE6+0fjv5puMOh3scYjFFVFVhQmloWsqGRyBVqNPbrt1vQb1Y4NY0RERFyZE7OABUEgV5hDlEQateoRjfrgmCQr1HYfvq51v5qmM+h28H0fQRAIggBBENB1k9FogO95SJKMJElMrItCIfA9Br0utf4OjmPPJrnj2m/bE7Y3zqEoCvnSPMX5BTrtFr1OG0mSURRl5po83BZRlGYJN7puoGk6+1PBJkkyqqoyHPQvvSGCIOK5Dp12k0G/h++5lwnVK6FqOoIgzJSSg7YYpokgiljjIUEQICsqvu/PhJggCHieR7fdYjjo43nuNd+FoqoQwGjQR1YU8sV5BEGk3Qq3cpQVBSMWZzR9voMEKk03cF0Hf/rvWCIUfr7vo+k6jmMzGg4wzFhozbmHnl0QiCVS9Dr7M6srCAJkWcHzPMbjIYIgoKgqjm1f02sQtlMlHk8yGg7wvIvXBGjsVWg368QSSZbXTpMvzrFzSKG6FG36jtvNOkEQkMkVUDQNyxojCiKKojKeKmrxRApNN9hv1sNxa5jsN2t4nkc6m8eMJahVtwmCAEVRsCcT0rkEg17v0PO5s37tdzsM+j1c12ZiWYiShKbpM2+LrCvIiozVDse7KIWhmsGhXIzDzx4mFYqMBr3Z76IkIcsynfYAz/MwY2EYYKaAyQq9ThtRksgVSkiyHAngiIh/AicmgGPxJLlCiVp157KP0YwlyOaLNPZ2rykIL8Vx7DDxh9BFXK9WQAgFg9UME44SyTiCIOI4Dp7rMRoO0A0TSZJJpNKYZozdytZMSFwJTdMplhdxHQff89B0A891ZwLX97xw0szkEQVxpmi4joNljcgX5hAFkWQmy2Ri0e3sk87mSabSyLJCLJ7AnlgzQey5DuPRAMOMI0kS2VweTTPY3jx3TXeeO90jOVsoYZgx/MCnVd9D1XQImG2FqKoavu8zGY8RRRFrPEZWFGRZCSdOSaKytXEkI/gwoeWaApguCTIxYzGqO5szaw8EREEklkgyv7gCBOxVtnEdB1XTKZUX0DQDz3NRFBUzHrqrNU1nfmEZIxZHNww6reaRnIAgCC3lYNHHtm32W3VUTcN1bOzJZGa5Tcajyxt+BYIgIAh8YokE84sruI5Ds16lVF5CFMVpnDr0dtiTybH5CQeKSyqTQ9V0zPj/3957x1ty1Qee38p187vx5fc6t9TK0cpIKBJsYRPX9qzXHmzPjBns3bHHOAEmWIAwZmc8s7MeYwx4jBP2YowxYEkIgSRQaMVWx5fTzTlU3j/qvqt+6u7X3egJBer7T3/61a2qU1XnnF88vxPDtizCkSjtVhPbsYnGEoxNbiMWT2D2ev04sD54LlEQiQ+lADB6PRRFRRBE/9kUDdM0iA8lMbpd8Dza7SahcARJ9vu0HgpTyq9gGD0UVaPV9JfiSZKEoqiDcIDnutiWRTSWYHR8CgSBerW84bgoSmRHxnAdh3IxjyQrCKKI1e+HqqYD/lj0PA8EYZBTkUilMA3jJV/yFhDwWmRLSlFKssz41HZs22JtZXGD5SArChPTO7Btk5Wl+ZO6wU6F54FtmYQjMUKhEB4erWYDWZbQQyHqVd/Vquk6sqJSq5QG1q4kSURicVRVpdvt0KhXT3Bjb3wGhWQqQyQSRQ+HcR2H1eWFwcTmOA6ObROJxtBDYVzHpd1qYpkGlmWhh8Lo4TC9TofVpXls2yadHSYaS2DbFoqiYfS6A+XEdV1/4lVVorGEn6HbbtJq1Ded/OF5ARyJxNB0HduyaDUbaHoIURCpFPO4rks4HMVxHWqVEo7jYBg9dC3Ut3oEms0G7VbjlPcTBIF0bgQ9HEYURCzTYG15nnqtMjjHcX3FJByOouk6hmH019j6giEUjtBuNSnl1whFIji2RaNeQw+F+pnfFqqmUS4VNihIjm0TCof77tQeRrdLOBbD6HVpNurIkp/U1WrUN8SeT4XrONi2PfhOvjLUIDGUJBobIhQOI8sKlVLhBA/OCddy3b7r3S8wU1hdxur303q1hNHtEgr7yVPlYp52q0E4HKHTaWP0ekSiUURJxHV9700xv4KqqYiiSKtZR9V0GrUKeig0eD6j5ytR63261+3QqNcAgUg0RrVSxuj5ClYoHKFUWOsrCg62ZREKhwlFoghAu9UYKF227SeGRaIxBFGk2agjyRKKqlGvlrFMk1AojCiKVEoFbNtGEkUi0SiO4yDLMkavS7VcCCraBQScJVtSijIaSzAyNsHaytJAYK0TicQYnZxmbXlhgxss4JWPIIqcc97FtJoNluaPnVYxOOPr9tcHrydjaXqIIwee+hEojCEgiAICfkLi+NR2Ws0Gc0cPvtwNO2PWv50kyWRHxsgOj7E4f2wQcgkICDhztsQF3Wk3mZ85ctJYXLfbZu7YocBF9SpEkiQk2Y+tb5XwlWWZkfEpYokhZEnGdmyW52cGbvPXMqFwmPHJbai6n83dabdYW154uZt1ViTTWXIj4/7yI1GgmF+hVim93M0KCHhVsiUC2HVdXPfkE6h/LHBNvRoRRZHC6vKWlvpcX65k2xamYdBqNjCN0yeevRZwbJtmo47XqGF0u7SajQ1Lol4N+PkNZSzTz2HotFtbppwFBPyo8ZLvhhQQEBAQEBBwIkEB14CAgICAgJeBQAAHBAQEBAS8DLyiBbAoilx/3bW87obrUFV1y657+WWXctONN2zZ9URR5I7bbuH88/Zt2TUDAgICAl7bvKIFsCRJvOGOW7nj9lvRtlAAX3P1j/GG22/bsuvJssxP/dSdXHLxRVt2zYCAgICA1zZbWopy757dXHXVlcRjMVrtNo88+hjPPvscoihw2aWXcumlFyGJEnPzC3zr/m/Tbne48srL2bN7F7Zlk81lyOcLfPOb9xIKhXj723+Kfeeeg+t5/OK7fx7TMnnq6Wf59re/g67rXHnF5ew7dy+iKPLcwUN86/4H0DSNm19/I6GQzlf+6WuEdJ3bbruFer3OwuIiN1x/HVdccRnxWIz/+Cv/DoDvPvgwj+9/YtPnS6dTvO6G6xgezqEoCkbP5L77v00iHue6a69m2/Q0eDA0lMD1PB74znd56qlniMfjvO6Ga5mensK2bB7f/wSPPPo42UyGO+98M7Is89xzhxgbGyGZTPLMM8/y7Qe+SyqZ5KabbmBkeJher8d3H/oezz336lkvGhAQEBCwOVsmgC+84Hx+73feh2mZFPIFhodzXHThBXzow3exZ88ufuPXf41up0u3Z3DnT7yZZHKIv/zi33DJxRfy0+96JwcPHsK0LO788TehyAoPfPdBIuEQnuchiSLRaBTDNJAlv+7y6264ll9976+wvLSC67rcftstyLLMvffdj2VZvPsXfg7LsolGI7ztrW/h43f/EZIoEY1EUBUVQRSIxvwat6qqbP6SZJl3/8LPcfPrb+LosRmMXo92p0NI15EkiXA4jOd5qJpGNBbFsf2KW5Ik8c53vJV3vP2nmJmdYyiR4Oabb+Kjd32C1dU1YrEob3zD7RQLRY7NzDI6OsrVV13JwsIi73rn27nuuquZm5snmUxy5RWX89G7PsH8wuJWfbKAgICAgJeRLRHAsixzyy03oSgyv/27H+DI0WMMD+fIZjLU6nUuueRiHNvhP//W79FoNHn/776Pa66+ir/84t8A0O11uevjn2R5ZZVPffJjXHTRBXz5K//EJz75aT764Q8gCAJ/9H//V5pNv+Sgqii88Y7bOXToCB/+6McAgQ++/7e5/rprefChh7n3vvvZs2c3v/Tun0cURf72S//AY4/tx7Isnnn2AL/2q+9hcmKcuz72yTN6PlEUmZqaotVuc8+997H/iadYXl7GMPy1z4/vf4KdO7Zz/wPf4XOf/1+D81RV5cYbrueBBx7kE5/8FFOTk/zh3Xdx3rnn8sQTT/Hf/vufcMN113L02Ax3ffwPGR8f4/zz9pFMJbnyisv4x3/8Kn/xl3/F1OQkv//B3+Xiiy4MBHBAQEDAa4QtEcCiKDCcy7G8skK+4O8Qs7aWZ23NL08XCum02h2Wl/2t9o4em+GKyy8dnF+t1mi1/B18Op3OYGehUyEIAvF4jMnJST79qU8AkEolefTR/QiCgG3bfPOb93DH7bdSKlf42te+gfUiKnFZlsUX/uKL/ORP/gR3/sSbeefb38rRYzP8yf/8M+bmT13JSBAEotEICwuL9HoGc/ML1Ot1FEXZ8JvZ2Tk6nQ5HjhzlyJGjXH7ZpcTiMd70pjdw7TVXgwDRSAQnKGgSEBAQ8JphSwSw53qsrq3xhttv47x95/LoY/sB/ELwtkOr2SKRiLF7107qjQb7zt27ofSg53qcqhqI67qMj40Si8UwDAO3/9tKtcbE5AQPPfx9ZmfnAFhcXKLb7aGqKrfe8nqMXo9UKslb33onn/mzz9Ht9isueR6ZTJpcLkutVh+0E0BSVIZ37aNdKVLPL/d/7vH4/ifY/8STjI2Ocvlll/CL7/55nnr6mYEAdj2XPbt3k0olabVaOI4LeDQaTfbs2UUqlWRiYpx0Oo1h+nvDKor/+gVRRJblwc5Lq2trNJstet0eX/nqP9NstnBdl2eePbAVnysgICAg4BXAluyG5Lou1UqVSy6+iNtuu5lbb349b3rj7UxOTvLMswfo9Qyuufoq7rjjVm69+SYmJib4h3/8J5577iCXXXox26an+dq/fAPDMLj59TciCAL3f/s7GIZJOBzm1ltu5pprruK2W29manKShx7+PuVKhSuvuJxdO3ewc+d2ztm7h9m5eebnF/jxN7+Rt/zEm/mTP/0sB547yFt/8k7mFxaZ7wvLbDbLrbfcxI2vu96/5tQkzx54DtO0GBqd4MZf+k30eJLFp74PgKIo/NZv/id+7t/8DNdeezUXXXQBsiTxjW/ew9z8AoIgMDExwe233cy111zF7bfdytBQgieefJpINMIdt9/K6153HXfcfiv1RoMv/f2XCYfD/Pr/9auce845ZLMZJifGmZmdpd1u0+12icdjXHrJxWzfNs3uXbuYmBxn//4nqVZrL/ZzBQQEBAS8AtiyJKxDh4/wgQ99lMsuvZhEPI7reRw7NoNpGjz51NP8wV13c8EF5yFJfhb0Qw89jOd5fO97j7K8vEqr1cR1Xf7l69/E8zx6PX/z9n+95146nQ7jY2MIAszNLeB5Hvv3P8H7P/hhztu3j2gkjG07LCwsIssyzWaTP/2zz3HvffejaSqmaSLLzz/qv95zH6ZpMjycQxJFZmbnBvHcdrXEU1/7O1qltcHvXdflwXf9BtgAACAASURBVIe+x9KSbxH3DJO5uTkeefRxAGzb5vNf+EsWFhZJpZLgwYEDB3Ech7/9u79naXmZqclJTNPkyaee4dlnD5DNZDh48BAHDx4CoNVqDyxg/3r/i4MHDzE1OYmsyDQaTer1ravJHBAQEBDw8hLUgg4ICAgICHgZeEUX4ggICAgICHitEgjggICAgICAl4GXVAALgkA4EkVWTix0IUrSKY+9VhGEV7++IwjCaZeJvVr5QZ/ttfxOAl69KIpKOBL9od7ztT4WBEFAFEVCkQiK4pdHVlSVUDhy0vldEPzfnmovgy3Jgj5VQ9PZYUbGJ2k3G1iWueF4KpNjfHIbrXpt0zW6giCgh8IIooDrrFeYkgn3X4DjOq+IDcEFUSQUCoPnJ229ED0UZnr7LhzbwniFbUCv6SH0UBhREHBd59Q/FAQy2WGGRydoNxub//YMkBUFVdNxf4BvKIoi4UgURVHP6nxBENB0HV0PoWk6rufiui6yrDA+tY1QJEqreebJbuvnhc/yvB8UPRRGOO47bXwPLp73w1krLgiC3985eX//UScciaJqGp7nndH7UVQNVVFxnBc3po4nGosxPrWdbqd9wvwLfgGlUDiCrKg4tg2nXAy6EUEU0XUdTQ+jqpo//lwXEJiY3k44EqPTbr2k87IgCOh6CFGUtvSdbYYkyaSyw0xs20kimabX6/hLXdNZJqd3Eosn6HXb2MfJM0mSGB2fIhKN06yfuILlJTPJNF0nOzJGu9Wk025tOKaHwuRGxmnUa3S73U2vo2o623btJZnODv4WCkfYvvtc9p53MUPJ9EvS/rNF10Ps3HseoXDkpMcFUSQUjqCq+g+5ZZsj9IXq3n0XMb1zD7J8ao+EgD9RhMIRBPHFa7mpdI7pHbsRRemsz1VUjYnpHezedyGJM+wDgiCQTOfYdc757D73Anbs2Uco5H8vQewL5r5QOVPWz9PO8rwfBFmW2b5rL0Op559X1XS27zqHveddtOHvLzWaHmLnOef/0C2sVwOCIDA6Mc3ucy9keHQCzqCw0MjYJBPbdiDJW7YwhU67jeu6xBPJk1qloUiUqe272LPvQqKx+BldU5QkssOj7DrnAnafez7bdu55fgwJfr8IhUKIWzA/KKpGdniUiekdjE1uI5nOIkr+XKEoKtO79pLK5l70fc4EURTJjY4zNjFNs1FjeX6GdqsJQL1WYW1lkXA0xvDY5IZ37Tg2zUaNSDSOomonXHfrvvYLGpsdHsN1XYr5lQ3HBFEkkxvB9VxKhdVTauy+pRIiGouj62EkSSYai+O6Lp12i4WZI0zv2oMeChOOxBAE6PW6fU3OP1/VdN/F7XkYvR62ffpqWLIso2o6oihi2xZGr4fneYiihKbrWKaBqukIgohp9LBtGz0UIhZPoKoaiqoSjcWxbZtet4MeCiHLCp7ncezwAYzeRoVDkmW0k9xPUVUkScZ1XRRVxXNdet3OQJtWNR1FURAEAQ+wTBPzDCxrRVFRNQ0EAcs0sUyD/OoykiKTSKTQdH2gufe6XTzPRdU0ZFlBEERajTrVchHTeF6jPtUzQF+zV1UEQcCxbXq9LqIooYdCRGJxJFlBD4WAEEavd1JN/WR4rkt+ZYmpHbs3VBZTFBVF0/yKaKaJaRqDtujhCGOT07RbTfIrB3FsG9dzicTiCMDq0gKmYWy4TygcwbZtZFlGlCQsw8A0DWRFQdNDZ33eAEHw26ooiKJIp93a1FLSQyGi8QSqpvdrjvtjodftcOzwAXadcz6arhOORBEEEcPoDjRxfyxoyLIKeBi97mDJ22Yoioqiqoiir6fbto1p9AbjUtWe7++O49DttAHfUtD0jf1BEARCYV9YG70uoiii9K2nXrfjjzFJQtP8+uqO42D0uqe1HtfHiWPbKKqGIHDCWJckCUXVkCQJ27Yxet3n5wdZHowhs9fFsqwTj3lgmc9/v43P51/veGtPkmTKxfxgLAmc2raUZRk9HCESjeG6DuFIFNdx6HY6OI7tt0XVkFXVn8eM3gYLazNs22Lu2CHwONEaFQRMw6BUWGNy284Ngn99zIKw4bkBIpEoo+NTlAt5SsU1//t4HpG+AM+vLNI7rn+tezBNo+fPqy8YC6d6PkmSGJuYJpYYotmoockyyXQWyzSwLItINEYoFKHVrBONJfA8d2B1i5KEpmpIstzvR/58FI5EQBD8/iec2P8EUUTTNCRZwXNdjF4Px/GfIxSOkMmNUMyvkl9Z3NAvLdOkXCygqCqZ3Ciqpm+Y52uVMu1WC/tkXogz+pJnSTSeIJFMs7I4h9HbKBTiiSGS6SxL8zMnHDsesW+6JzNZJElmeHSc3Mg4nXaTY4eexbYtf3OFWIJMbgRFUVlbWWR1aQHPc0lnhxkem/D99IJAcW2F5YXZTdutajpjk9PEh1JIooRlmczPHKZZr5FMZwbu9FgiiaKqVIoF8qtLTG7bSSwxhCAITG3fhed51KsV5mcOMzw2STKVQRBF1pYXya8snvZ+rUadkfFJIlF/kg2HI3gezB07SL1aIRpPMDG9A10PsT6uivllVhbnN32+UDjC+NR2ItEYoiTR63SYO3rQF4qChIfH+NSOgct/YeYIjXqV8antxOND0I/vLMwepdft9J9BY3xyO7FEEkkSMYwe88cO0241iUTjTExvJxSOIgjg2DbzM0fwgOkdu9D1MI7rsHPv+Xiuw/LiHOViftNnkGWFZDpDKpNDD0f6782fkMLRGOOT075CJor0Om1mDj83GOyxWBxBECisLg28Molkmm079yJJEq1mndmjz+84pekhduzZR6/b8b0Xmk69Wmbu6EEi0Tjbdu5BkuTTnBdG1ULUq2VmjxzEdR1kWSaZyZHK5AiFIoiiyIGnHhu80xfiW0hTpDI5JEkiOzxGJjdGt9Ni9uhBRFFEEAQSQ2kyuVEURaGwtsLi3DFEUSSZzjI8OtEXphLF/AorS/ODkM6p+srE1HbC0RggIAhQr1ZYXV5gYnqHb1WJApPbduJ5Ho1aldmjB1EUlbGpbSSG0kiyhGkYLM4ewbIsdu7dh6KoFAuraJpONJbAtkxm+31wZHySZCqLJEm4rsvC7FFqldIp2ygIAsOjE0RicSzTJBqNISsq+dUlVpfm8TyPWHyIdHa4r7xoFNdWWZw7ylAqw9jktoHHx/NclhdmqZQKDCXTjE5uG8T4AFYWZynmV1FUjfHJbcSHkkiS/3xzxw7TbjUQBIGhlN83I9EYqqpRq5Y3dcXGh1JMbd+Fomo4ts32XVHwPI4eeoZ2q8lQKs3oxDSqqiGIItVSkcW5o2fsdrXMEyd9VdVIprMk01lf+e0LJRBIDCUZGZ/0Q1KiRLPuf9f1+w2lMti2TTG/MgilDaUyTE7vQFFV2q0WM0eer9inajq7zjmfWrVMYiiFqmk0qhXmZg7j2DbJdJaR8UlURUMQBcrFPItzx5BkmUgsTqtZZ2HmSF+Bi2CaBqMT02SyI0iyTDY3RiY7Sq/b4ejBpwEYHpsknR1Gln0DZnlxjnazwc6956EoKqXCGoqqEosP+UrK0YN02i0yw6NkcqPIsoIoCqwszlNYW8bzPFKZHK7rUinlT6EUegOhKyvKBgHsuu4Jhtc6Wx4DVvuuwW6nTX51aUPnUxSV8akddLttiv0HOxWe69JpNZH6FsTM4QMU1paoVcvYtk04GiM3PEajVmV5YQZVC6GHQlQrJWLxIcantlOrlFian0FTNULhKKXC2invJwgCuZFxEkMpFmePUikXGEplQBBo1qukcyPEh1K0Ww1WFub8CS+ZolRYpV4po4fC2JbJzNGDFNeWadSqOI5Dp9WkUioQDkfQNJ1apYzruv79hsdIJNMsHXc/QRBo1Gpkh8cIR2MU8ysUVpZJZrIYvR7dbofxye2oqsbskYMU1pYoFdZoNeqbWgtiX6PUdJ2FmcPUa1UywyNYpkm73WJkbAJV0ynmV1hdmicxlEQAmvUq7VaLUnGNcjFPMp2j1+3SatYRRZGJbTvRQ2GW5o7RbNRJpjJ02i1s22Jy+y48YGHmMOVifmCdtBp1uu02scQQpcIaC7OHKRfyp40bybLM6MQ2MsOjNOpVuu0Wmh6iVFwDD6Z37MZ1PRZnj9LptMmOjFEqrCFKEqFwmKF0BlXTqFerKIoy8CpUKyVsyySVHaZczA+sp2gsTjo3gmWZLM0dw3UdYokhatUSnVbzrM+rV0uIosTk9l0MJTPUqxUsy0RSZEqFtYG2fTLa7SaCICArCsfWx0K5hG1ZROMJUpkcrWaDpfkZZMVPCikVVonGEkxu30WtXGJx/hh6KEQoEqFWKZ1SAAuCQG50nEQyzcLsUVaX5ykV1qjXKlimQbNRRw+FsG273weXqdcquI5DbnTMV7DnjlEqrPb7tEitUqRWKaOHQiSGkpQKa1TLRaLxBEavS3woRTKdZXVpnvzKEqlMDtM0aDVOHVcXBIHs8CjReIJ6tczSwiyqphOORqlXKySGUoxP78BxHKrlIpFonGq5QKfdYnrHHlzHZn7mMIW1JcrFPJ1OC0lWmJjeiec6zB49SDG/TKmwRrvVwI9x7iAcjbI8P0OjXiWZztDtduj2+9vY+BS9XpdKuUg8kaSYXz2lYgVgGj2MXo9INMbq8gJL88coFdbo9bpoms7ktl10Ox3mZw7jug7JdI5Wo77Rm3IWqJrWj2GmqFWKOI6DLEsDoTS1fReGYbAwdxTPdYkPpahXK8iygh4Ok8kOA9DttpFl3/Ng9HrUKn5fTCRTtJr1gTdOVTVGxiawHZvl+Rk81yWWSFItlwiFIkxu20m9VmVx7hiyrBCJxSnlV/E8Dz0UJhZPYpsm3W4H0zRwHYdOq4UoisiqwuyR58ivLlKtFPv3TzM6MUV+dYnlhVmisTjhcIRKqUClVEDT/f5XLuWpFPNE43F63S56KMzoxDSlwiori7NEYgkURaFRq+B5MDox5Y/5cumUc1QoHCaeSFKrlLDO8PtsqQUsCAJD6QyKqrE0P7NBIAiCQDo3gqqqLM0fOyMNzrIsZFnG7PXodTsb3BqxeALTNCisLdHr9QDP1/Y8SAwlcWybRr1KNJ4gFInSqFc3vZeiqiSSKerVMvVqGUVVMY1eXwsW0PpuhcLqsu8msa1+8oGHbVvIikK72aD7AiFiWaa/paIk02zWBpOsoqokUmnqtTK1ahlFUTGMHrKi+rEUTafVqPuurL5L2LYt3zVidInFE2SHR2k2ajTq1dO611VVIz6UZG15gWajjqaHsC0TRVVRZD8ZqlIqUsqvAuA6Do7j4jgOtu1PIHrI3x5y3ZXiD5ChQZghlhgauA5DoTCRSIyZIwdoNRsAg5gJ+O4xSZJpNmqbekKOx9faMywvzFItlxif2objOPQ6HcKRCKFwhMW+ABpKpul1fNdSbmSMTG7EDwUAO/aci2PbLMwdo1GrYBo9JEXG6PU2CCVV9d97Ob9Kq9kgMZTCsW1Mw3drr59nnua8+Pp5pkk2N0o0lmB+5giNWoVtu/ZiGcZpE9oc20aSZSzLpN1/n+tomo5tWxRWl+h1u4CHZZn9mHcWyzJptepEY3E0PUSzXh2Eak6FaRiDREpFVWnWawMt3jINZFmm22nT7bQH41wQBIaSGWrlErVquX+dHoqqDqwsSZJot1tUigW8fjsd2yY3Mk6zXsWyTJLpHCBgbCK4fHxXcafVpLC2jGPbOI6N68pomsb41HYatQpLC7P9hB1x4Pkwzd7Ae9Zs1KlXyzi2jSD7bY4lhsgOjw3Gl+M4hMIR4okhSsW8b12v9/duh2g8wej4FMW1FdZWlkhnh/thnM2fwXEcEMDDo9tubRgL0XgCSZYprC7R7bTptMOksx6y8oNP25nhUSKxOAszh2nUquzcex6mYeA6LkOJJJIkUy0X0Pthhl63g2WZTG3f7YfZNB3Hsdm2cy+2ZXHs0LP0el1M00U4ziW/zrqFXcqv0mw2SCTT2LaN53nEh5K4rkOjViESixOOxui0/L7tOg755UVEQWRi2w60kE5hdRnHcbAsyx8LhuG3b2DlCwMDoFIsYNsW3W7Hj28LYBg9JEmi02lTLhbwPBfLtjANg4npHXTaLTrtFvFECkVRqVcrOI6Dpusoqkq1XNrUyPHDdJx2bG045wf6iqcgHImRyY1SWFs+IfEqHImSzuR87e60A8tHEPzJrNmov0Bg+wKx025hmiYC/iRULuUHMQc9FGZy204c26FczFPexPoFEEUJRVExzV7/3gKiJGG2mgOB2KhV+h9RJhyJ0mm3cRwHUZKQJJluP5bwQqKxOLKi0KzXBscH9+vHDgVRQBIlumYLVdeRZJlGwZ8otfiQH+e1TFzXJb+8iNHt+e6pfnLC7NGDm8aGREnylYS+EPSXC4gYvS56fz/jZr2K67rEEkPIikqn3dzwPOvJFtZAAIeQFYVMbhTH8TXhhdkjdNotsiNjeJ53SteLoqiDOPOZIMsKiWSadqtJpVxEURSi8QSm4cdpQpEosqwwMjaJ6zp02u1+bLbH2soi1UqJqW07MU2TpfkZ8LyB61qUJOLxIRq1yoaMfEVVsU2TVrOB1I/VmaYxGISiJBGLD1GvVTc9b9115nkeQ6kMjXqVZr02ONZuNTd1B8PzcUfjBe9LFEU0PUSv26HTaaP0M8t9Ie0niIVCESamdmDbNtVygcLqyqYTied5lItrfWGYYXh0glQmx/yxw3Q7bSRJQpIVep3OhusoioqsKJhGbxCLkySZdquJ04+HS7JC7ThvQbNeIxKNoWgaCSVNJBrHskyWF2aoVSubvpP13IRCybd+FEUdxAX9vBCBwtoKju2QSKb7yqSF53kszc8wlMoylEwxPp0iGk+wOHsU27ZZmj9GKjNMIpkikdxBo1b1vQd6CFlVyeRGsFMZDKPL4txR2q0m41PbMU2zH0LxhYtpGmdkaCiyiue4dDsb58Xjcz/Wv7Xruj+w9StJEomhFJVinkatiqaHCEei1CplHMePoWt6iLHJbX6uTatJcW0F27JY6ruFd51zPtVyiWJ+eRAbB9/tGh9K0m7WN2y0E47EMHpdup22P0/roYF1HAqH0fUQE8d5KUqFtcGcYxg9luZnSHVyjIxNYhom5eLaQC50O50Nwk4QQNX9vr/ev2RJ7lvOrm81ywqVcnFgRDTrtUG+kaqqqKqG49gUVpcpF9cGxpO/xOjU3jl/NUIMy7LOKBdnnS0TwLIskxsZw7IMquXiCY3LjoxhWebgoc74uv2JWhCEQXKGIIAWCg3cXpoe8oP7ponn+Usxet0OK4tzdDttZEXZ1L23jp8Q4CdXxOJDfeFfQ9X8gL7R6yErCsOjfoxk/thhHMcmEoohSRICfpKZKIq4zvNLYzQ9NEhC8jN+vePupz1/P02jsVRD0/xM6XXhvD4QTcNEkiREUfJdKKUCoxNT5EbGkSR5UwEsAAJ+HKXX7ZAYSiEIAq1mY5ABadl+csPo+BRGr3tC2vx6O9aFqut6uI5DpVTw3S6WORCs/gQsIssqpmii9RMt2s0m4KGHw4CH2F9XJwjipt9I6ifotJp1BGAomUbXw1TaBcAPWTiuQym/Qr1W8RNPoG+xW4iihCD6CscLlQJdD6FoOpZZ6K/zk/A8D1UL9ZM+TFTNT0xpNZsbzlM1HcssnnieZZ5wntB/h416FUEUyA6PEQpFKBdPFVc67vuJ/rs06PWTovxMS0mW0UNhut02nusOFLt1S9jrJ7asLMzSabeQ+4l7m7EuYBu1Co1alVQmy/jUdkKRCN1OG7WfKAX+OkdfMPiWnD+ZhZFlf0JWVJVOu+XXBIjGECURq78b2Pr4cF0Xz3Vp1msU8yuYhp/kdjqvgB7yx5Vtmeh6iJHxKQRRpFIqkM6O4DgOrusSjcUYSqYHwldR/eU+xfwKlVK+H9MeQlFVXxHqC+5y0T8WTST8eKLnDvp7tVzc0N91PYzj2Hj4eQWRaKyfnHX6JUiSLEP/fayvCFh/dkmW0fUwlmUylEpjGr0zVlpfiKaH/KWbto0kyWRyI/04dq+/hM33buVXlmg1/Zj2umJomgahvuXtj6GNQkaSJHQ9RLNWRRQEBFHCdR1UTe9b2P51FFWl1ajj2Bbuet9cnPP7pqwMEs8kyU+gchybSrFAJjeKpj+/gkQe9HEBSZYH1xeOe05F0whHo/3x5RCJxftyYmP/A3/+6HbarCzN0+t2UBRtY//0vE2z2X0P4xCVUhH3bOTbGf/yNCSSaaKxOPOzRzYIgnU3WCQaZ3Hu6BllXx5Pu9UkOzxKLD4EeMwdO4wg+BaB0e0OYgWe57ugbdumVikzOjHN2NQ28PzJa37m8Amuu+OxTINGvUqmH1NSFJVKuUizUSeeGEKSZHKj42SGRwCB1b4rF6DX7faTSKZIZYZxbIv5mSMDTdUw/CzQbTv3YpoGq0sLdNrNk96v1aiRTOdwXWegSSmK2s8m7RBLJJnavgvb8t3RiqpSr1VwTuOCNk2DVrPOxPROciNjyIriuyx7XZLpLKqq+dmQkoxhdFmen92QkSwIAqoewu5bugCdVpNup006O0w8kRwkMs3PHKHVqGOZJtt37fXdzbJMq1Gn1/E3nWg3m3138D4cxx7EL0+F7dh0u22S6dwgw7heqxCNJfqZknWMXo/MsB+DlGSZSqnA2spSXzCJSH1t+GTvxjR6g+9XLReplovouj7w5IiihKKq9Hqdk5w3SSqTO+15Hr57Mzcy5sfYRRHbsTHPwAXvODaddotkKkMoFMF1HVaXF7BMP4xQKeX79xP7VmcDD6hXy4xNbmN0ctrXSARYXpjFqp062zwUjjC5fVdfaXSQFYVet0un5T9Tr9el1+0nTaWzOI7NQr+/N+pV0rlhovE4sqxQLRdp1KuMTU4zlMygqToj45ODZDDwJ/RGvUo8kfSVaVHE6idnbaZUKoo68HogCDiOzerSPJ12i1C4SSY3wo495+K5rt+u7DCZ3AimYZAbGe+vH/eFgh+3M8kMjzI8OtF3a3ooqka9WsG2bDqu76JMZXLE4kO+O73VZH7mMJ1Oi9zIODv37MN1Heq1ComEH9curC5v+m173Q6SLLNn34W4nkulWKCwtkyr2SA7PMaOvfsGisHy/MxpvSWnvE9fcOZGxxlKZTBNg067TTKTpdmo0W42cLLDjIxN4jgOkiyTX10ahKUU2U9KO1m4y3Vcet0u2ZFxP25cq7C2vICqarRbDWzbHngsTMPwx2+lTGQyxuiE3zdFSWJh9giObTMxtQPXc33LvB+Wa7een7/bzQapTI5wNIoAzM/4nrf1uX/3uRcgSiLdTodKsTBI8NM0nZGx5/vfurFQq5bJjYwxMbXdV4Zcj4XZo3TaTYxeF9M0iMYTVIqFE1ZqKKrK8Lj/ziqlApyFAN6SJCxN0xmf2kGjXqVUzG9ogKbrjE/voNWoUVxb2eQqJ+J5Hp1WE9uyMM1+8k6nhQc4tkWjXvPjNoKAaRo0GzXcfgyy1+1gWzbdTotquUC72dg86cvz/AXrholh9KiWi5QLeRzHJp5IEo3FqVXLNKoVCqt+ktW6Jet5Lt12C9uyfMuxWduQUGSZBt1+rKLTbtLqd8huu41lnni/9SVOrUZ9YP132y06nXZf47cwTQPD6FGrlCnmV0+7NMF1HDrtFpZl0ev6nbJSLuL1E8IMo0e306FWKVFYWT7BSlQ1jdzoOL1OZxDfcxyHdqvpW3uGP/nWKmVsy8K2LTqtJlY/SaNeLVMuPO96tG2Lbqc9+Pf4xI2Tfh/XH+CWZdJttynmV2k1a4MYcK/bGbieDMOgUatQW4/rCQLRaJxMbmQQw3/hu+l2/G/R63X8mLpl4noezXo/4UXwn7deLQ/ciiec1zjNebY9eOZet4skSoiiyNrK4mldlesautVfWtVuNOi0mjiug+s6/rP244m2ZdFo1Abuy25f6fHHQqk/FjZxQeMNYtaG0aNZr1JYWxm4Qj3Po9NpP9/fG3U6nZbfxnbLX7rS61GtlCjmV/FcF1lRsSyTZqNGt9Oh02kNvrfnebRbTUyzh235rvtKuXiCu/2FJJJpQpEIlVKeRq3C2srSQMk2jN5AQSqXCtQrZSzLxDAMOp2WnzxkGBjdDpVykWJh1bd08LDN/vjq+slU5eKav2Tthf29UaXaF9xGv2/2uh1KhbV+sqW/xOV0OQ5Gr4dp9LAsi0676Qusviuz1+1iWybttu8Obm1iRJwO3xvS7ecENCjmV+i0/OVv/ndp0+m0/OVmvS7VSolmrTqwxhPJNLF4gnIhf4Iiu7481LIMjF6XVqPmKzGC4CeNGQaiKOLY/rpY36Do0ut0+nNAh2q5QKvZwHXdgfXr2P74LuZXNnjkuu0Wlu0vvWw2/aTO9aVw/nc3aNRrFFeXMU0DRVGxLGvwnH68/fn+1en/37YsOu3WIFlv4M0TBN8K13Rcx8E0DTRNJ5MbZmR8ilA4zMrC3AYl4UzYkt2QItFYP7OtcEJnC4UjDKXSlIv5E9ZKvloYn9pOLDHEoWee/KFVGnqloId8d2IqmyOZyjI/c3jTpSGvNFRVIxqPkxudwHUcZo8cPOO1xlvNerxWlCRSmRypdI786hJrywsvS3tezUiSxNSOPciSzJGDz3CmVZwCzhJBQNM0YvEhRsYmabebzB878qKr4L3aEEWRxFCKobS/eqFSKhCOxsjmRrAsi2q5OFhPfDZsiQu63WpuyHA9nvVMyVcrkiShqlo/8/VHS/gKosi2nXvRQ35Mc21lgUZt88SYVxLry2nSmRztdovlhZmXTfgC6OEw23eeg6KqGIbB2soCxb57L+DsECUJVVXptNsEwvelQ5IkRiemiSeSNOs1VpbmfuSEL/gWfrVSonqc8dFpNZk/hdw7U4L9gE+HIPhVYTx+4OzDVzN6KOTXt/ZcbMt61dX9XS8+4dj2GVVCeykRRRG1n2DnOA52f4lawNmzXt3LXPJVuwAADUJJREFUddyXVan6UcAvAiJgW/YZJbMGnDmBAA4ICAgICHgZePXvj/cqRxAERkaG2bVr54aaxgEBAQEBr21e0QJYFEWuv+4abrj+2lPup/iDcNmll3Dj667fsuttRiikc/Prb+TKKy476fFwOMQvvfsXuOsjH2R8bPSH0qaAgICAgJefl2Qzhq1CkiTecMdtCILA/v1Pbqiw8mK49pqrmBgf41v3P7Al19uMSDjCW+78cRYWF/n+I4+dcLzT6XLPvd/iyNGjrK5tvhFBQEBAQMBrhy0TwIIgsGf3Lq666krisRitdptHHn2MAwcOIggCl112CZdefBGiJDE/v8C37n+ATqfDlVdcxu7du7Atm2w2Q75Q4Jv/eh+hkM7b3/aTnHvuOXiuy7v/7f+BaZo8/cyzfPuB76LrOldcfhn7zt2LIIocPHiI+7/9HTRN4/U3vY5QSOefvvov6LrObbe+nnq9weLiEtdffy2XX34p8XiM9/yHXwbguw89zP79T276fPF4jBuuv5bpqSks2+bx/U/w2GP7CYfD3HrL65EliVA4RDQSYXFpifu+9QB79+zixtfdwPbt20inkrznP/wytm3zwHce5NkDz3HJJRdx1ZVXIMsyq2t5jOOWaWUyaW65+SbS6TTdbpeHHvoezx08RCqZ5E1vvINKtcr42CiSLPPII4/y+P4ncV2XyckJrrnqx0inU0iSRLPV4hvfuIeV1SDbNiAgIOCVxJYJ4AsuOI/f+533YVs2hWKBXC7HxRddwIc+/DF2797Fb/z6r9Hr9egZBm+5880kk0N88a/+lksuuYifftc7OHjoMLZl85Y734yiKHznuw8Ri8bA85AkiXg8jmmagz1wb7j+Wn7tvb/Cyoq/gP6O229FkRXu/db9OI7Nz/70u7Atm2g0ytve9hY+cfenkWSJeDyGpmmIokQi4Zdg1LQTN0o+HkmSeOfb38o73vFWZmfnGRqKc8vNN/HRu+5meXmZN9xxK2Njozz9zAE0VeUtd/444VCYhcUlotFovzqRfz/LsgexXk1VSSQSnHvuXlzH5e++9A/+R5Fl/v0vv5trr7maubl5hodzXPVjV/Dhj34cSZR421vfgmmZrK7myWUzvP6m1/HeX/11SuUy733Pv2Pv3j0szC9iOzblcgVRekVHGgICAgJ+JNkSASzLMrfe/HpUReF3fu/3OXLkKCMjw2QzGWr1OpdeejGu6/Kbv/V7NBoN3v877+Paa67mi3/1twD0ej3u+vgfsrKywqfu/hgXX3Qh//iVr/KJT36Kj3zoAwiCwKc+/V9oNv1SeKqi8MY33M6hw0f48Ec+BoLAB9//21x//TU8+PDD3Hvf/ezZs5tf/MVfQBRFvvT3/x+PPvY4lmXxzDMH+D9/9T1MTIzz0bvuPqPnkySJG2+8gQceeJBPfPKPmJqa5A/vvovz9p3D8rJfZm52dp4P/v5HUFWN9//u+7j+umv4j7/26xw9dozR0REWFha56+Of3HDdh7/3CA9/7xF+/ud+luuuvWbw9/HxMa64/DK+/JWv8qef+SzXXnM17/vP/4mLL7yAp585gAc88cTT/MHH7uaSiy/iU5+8C01TEUWByclJVlZW+erXvs7TTz/DWr5w1uU/AwICAgJeerZEAIuiwPBwjuWVFfJ5f6uu1dU1Vlf9HYhCIZ1Wq83Ski+sjhyb4YrLLx2cX6nWaDVbuK5Hu9MZFIs/1RJJQRBIxGNMTEzwR5/6OADpdIrHHtuPIAhYls03vnkPt992K5VKha/+879s2K3mbNdd+aUMI8wvLNDr9Zibm6deqw8sWdf1KBZLmKaFaVqsrq5x4QXnH3eFs7tjNpNBURTy+TyWZfPss8/RbrdR1PX7uczN+xuOtzsdLMsXsJZl87nP/QV33HEb/+Zn3oUgijz11DP86Z/9OcXiq6d6VUBAQMCPAlsigD3XY20tzx2338K+c8/h0cf2AwxqeraaLRLxGDt37qDRaHDuOXsxTWvD+acSUa7rMjY2SjQapdcz+vVaoVqtMTE5wcPfe4S5uXkAFheX6HZ7qKrKLTffhGEYpFJJ3vqTd/KZz36+v28w4Hlk0mmy2Sy1Wm3QTgBJUcntPJd2tUgj/3zt6majyZ7du0gmh5icmCCdTg2SwgRBYDiXJRwOoygy2VyWRr9m63qhhUwmTSQSwexvGOH1Xevr2wIKgoAsy3ie/y57vR6TkxNEIhEuvfRiotEohtFPQvM4qVXrui733Hc/937r2+zYvo3bbr2ZN73pDp586mn++Wtf/4G+bUBAQEDAS8OWCGDLtvnq177OxRddyG+97zcol8u4jsuTTz3NZz77eR559DFuvvlG7v74R+h2e6RTKf78839x2us6jsPD33uE977n3/PJT/wBnXaHp55+hj/+7/8vX/zrv2PbtmluvfkmqrUatm3z13/9JZ47eIg3vuF2br7pRv7kTz9LLBbjf//Z/22QvAVwbGaWN7/pDfzXT99Nq9Xmyaef5rN//gVarTax7CjX/tx7WTmwnwe/8Md+O2ybb95zHz/z0+/kv3z6k8RiUarVGk8/8yzg71I1OTXJRz/8AWRZZnp6ks/++RcAX1F45NHH+Zmffif/4799GtO0+Icvf4Vv3f8Ab/upt7Bnzy62bZtmdGSED33wd5mbX+Czf/4FHv7+I7zpjXdw6SUXk0qlOHr0GPufeBJVOfVyLFVV+ciH3086lcLzPJLJIWrVWpCAFRAQEPAKZMuSsA4dOswHPvRRLrv0YhLxOK7ncezYDKZp8sSTT/MHd93NhRf4W0TNzS/w4IMP43ke3//+o6ysrNHq78rx9W/8K67nDazdb/7rvXQ6HcbHxxCA2Tnf9fr4/v28/4Mf4fzz9xEJh7Fth4WlJWRZpt1u85nPfp577/uWX8e5n7y1zj333odlWQwP55BEiZnZ2YF12amVeebrX6JZen5JkO04/M3f/j3LyytMTk5gmiZPPvU0zzxzgEwmjet6HDjwHI8+9jixaJS//4cv890HHwZ8q/Qfv/JVSqUS6XQagKWlZTzXJV/II0kix449vw1foVjCsiz+n//xP3nuuUNk0inanU7/Pa0Sj8f5i7/8Is89dwiAYrHIZ/7sc5QrFVzX5TvffYhs/z7dbo8DBw/yxBNPbdVnDggICAjYIoJSlC+STCbNh3///cwvLPCxj//hy92cgICAgIBXCcH6lBeJ54FlWafdzzUgICAgIOB4Agv4RSKKIrlcFsdxgkzjgICAgIAz5iUvRSkIwim3XNvs2KsF13VZC0pIBgQEBAScJS+pC1pRVNK5YTQ9dOIxVSMzPHLSYwEBAQEBAa91XjIBLIoiubFxMtnRE6xcQRDI5kbI5sZeqtsHBAQEBAS8onnJBHA0FieZylIqrmEavQ3HYokhkpkchbVljF73pWpCQEBAQEDAK5aXRADLskJudIJOq0m1VNhwTFFUssNjdDttquUgaSkgICAg4EeTLRfAgiCQyuZQNZ3C2vILlucIJDNZ9FCYteUFHCfYJCAgICAg4EeTLRfAeihMdniMarlAq18PeZ1QOEw2N0qllKfbaW/1rQMCAgICAl41bKkAliSJ3Og4ptmjXMifcGx4dALLMinl1171y48CAgICAgJeDFsqgONDKWLxIQory5imseFYLJEklhgiv7KEZZlndd317Qm38lhAQEBAQMDLyZYJYE0PkRsZp16r0GzUNhxTVJXh0XHq1fIJx06HHgozPrmdUDhy0mOjE9OEItGzOi8gICAgIODlZksEsCAIpDM5JFmiuLqM67rP30AUyY6MI0oS+RccOxM0PUR2ZIxYfOiEY6FwhOzwKJGTCODNzgsICAgICHi52ZJa0OFIjKntuygVVikV1l5wLMr0jj2UCqsU82e/L60gCGh6CMs0T8iaFiUJVdVOemyz8wICAgICAl5utkQAa5qOqut0Wq0ThJ2qauihMK1m/ayt34CAgICAgNcqW7IZg2H0MF5Q7Wod0zROSMgKCAgICAj4UeekMWBBFCHIIA4ICAgICHjJOMEC1qNxtl9+PUanyerBp+k2akCwZjcgICAgIGArOcECVkJhRs69iKt/9j1c+Y53o4bCL0e7AgICAgICXtOcIIBbpTwPfeGPmfnetxjZewFKsF9vQEBAQEDAlnOCAPY8D7PbQZRkLKOL6zonOy8gICAgICDgRXDKJKxoZhiz3UKStiRROiAgICAgIOA4TiqAPddh7rHvIOs6l7/935KZ3vXDbldAQEBAQMBrmpMLYM9D0UOE4kkkRUGUlR92uwICAgICAl7TnNS/LEoy4/supbY8z3c++2mMdvOH3a6AgICAgIDXNKewgF3a1SKhRCqwfgMCAgICAl4CThTAgoAgiJidDrKqIYhBRayAgICAgICt5gQXdCwzzEVvehfj51/G2sGnsLqdl6NdAQEBAQEBr2lOEMC2adAsrnLgni8z//hDWL3uy9GugICAgICA1zRbsh1hQEBAQEBAwNlx0iSsgICAgICAgJeWQAAHBAQEBAS8DPz/ZL9qon1J+V8AAAAASUVORK5CYII=;" vertex="1" parent="1">
          <mxGeometry x="310" y="526.75" width="394.81" height="133.25" as="geometry" />
        </mxCell>
        <mxCell id="gRWaRnPRZ2yJ30fN4pCJ-12" value="" style="edgeStyle=orthogonalEdgeStyle;rounded=0;sketch=1;orthogonalLoop=1;jettySize=auto;html=1;" edge="1" parent="1" source="gRWaRnPRZ2yJ30fN4pCJ-9" target="gRWaRnPRZ2yJ30fN4pCJ-11">
          <mxGeometry relative="1" as="geometry" />
        </mxCell>
        <mxCell id="gRWaRnPRZ2yJ30fN4pCJ-13" value="&amp;nbsp;如何获取？" style="edgeLabel;html=1;align=center;verticalAlign=middle;resizable=0;points=[];" vertex="1" connectable="0" parent="gRWaRnPRZ2yJ30fN4pCJ-12">
          <mxGeometry x="-0.1822" y="2" relative="1" as="geometry">
            <mxPoint y="1" as="offset" />
          </mxGeometry>
        </mxCell>
        <mxCell id="gRWaRnPRZ2yJ30fN4pCJ-16" value="" style="edgeStyle=orthogonalEdgeStyle;rounded=0;sketch=1;orthogonalLoop=1;jettySize=auto;html=1;" edge="1" parent="1" source="gRWaRnPRZ2yJ30fN4pCJ-9" target="gRWaRnPRZ2yJ30fN4pCJ-15">
          <mxGeometry relative="1" as="geometry">
            <Array as="points">
              <mxPoint x="173" y="300" />
              <mxPoint x="30" y="300" />
              <mxPoint x="30" y="480" />
            </Array>
          </mxGeometry>
        </mxCell>
        <mxCell id="gRWaRnPRZ2yJ30fN4pCJ-18" value="" style="edgeStyle=orthogonalEdgeStyle;rounded=0;sketch=1;orthogonalLoop=1;jettySize=auto;html=1;entryX=0;entryY=0.5;entryDx=0;entryDy=0;" edge="1" parent="1" source="gRWaRnPRZ2yJ30fN4pCJ-9" target="gRWaRnPRZ2yJ30fN4pCJ-17">
          <mxGeometry relative="1" as="geometry">
            <Array as="points">
              <mxPoint x="173" y="300" />
              <mxPoint x="20" y="300" />
              <mxPoint x="20" y="555" />
            </Array>
          </mxGeometry>
        </mxCell>
        <mxCell id="gRWaRnPRZ2yJ30fN4pCJ-20" value="" style="edgeStyle=orthogonalEdgeStyle;rounded=0;sketch=1;orthogonalLoop=1;jettySize=auto;html=1;" edge="1" parent="1" source="gRWaRnPRZ2yJ30fN4pCJ-9" target="gRWaRnPRZ2yJ30fN4pCJ-19">
          <mxGeometry relative="1" as="geometry">
            <Array as="points">
              <mxPoint x="173" y="300" />
              <mxPoint x="10" y="300" />
              <mxPoint x="10" y="640" />
            </Array>
          </mxGeometry>
        </mxCell>
        <mxCell id="gRWaRnPRZ2yJ30fN4pCJ-21" value="&amp;nbsp;默认值&amp;nbsp;" style="edgeLabel;html=1;align=center;verticalAlign=middle;resizable=0;points=[];" vertex="1" connectable="0" parent="gRWaRnPRZ2yJ30fN4pCJ-20">
          <mxGeometry x="-0.8963" y="-2" relative="1" as="geometry">
            <mxPoint x="-64" as="offset" />
          </mxGeometry>
        </mxCell>
        <mxCell id="gRWaRnPRZ2yJ30fN4pCJ-9" value="" style="shape=image;verticalLabelPosition=bottom;labelBackgroundColor=default;verticalAlign=top;aspect=fixed;imageAspect=0;image=data:image/png,iVBORw0KGgoAAAANSUhEUgAAALkAAABHCAYAAABbNeY1AAAgAElEQVR4nO2deXxU1dnHv/feWZOZTJLJRhKyb4Swb7IjIosLiCgK1taKWmvfWq31rd3t29a21qVqa62+tX217qJUZUcWQXYIISQEQkjIPpNtJjPJrPfe948JgZCw1Sho8/v4kU/m3Oec55z73HPPfc7veY6QMvoKlQH0hiCE/lUHhufLDs2lVuByhDEikkF5I9CFhXN812b8ns5LrdIAPgPES60AgCAIDBs2lNu/tgSLJeKC5URRRBT7twu6MBPjF9/FxNu+TXx2AZJW16/1D+CLx2Vh5JIkMXHCeG5ZvAiTyXTBcgvmX8uyb369X3UxRliIzy7g6Lb17Hz9eTwuZ7/WP4AvHr2WK6fPjIIgoKoqiqKcVi4gCKFrTi+TRBG6ru9LVhRFhJPrXEBRFFRV7b7uvRUfUFp2hObmll76nCknAIIokpaayuDkJCRJ6lFnt/6iCKra47fzQZFlggE/AL4O9wXLDeDyRQ8jlySJGxfOZ/KkiXg8HqzWaNzuDt56Zzl79uzDYDBw06IbmDp5ElqdlvJjFbzyyus02mw8cP93GDZsKOXlx+jo7GRIXi4tLa089+cX0EgSS269mazMTHR6HbIs89Y7y1mzZj052Vk8/IMHkUSRTo+H8vJj2Gx2AFJSBrPk1pvJ7pZTePud5bS3u0K/Z2ViMOj561+eA+Dd5e+xZu0GAMyxCUy87T7sx8s48MHrFzwgoqRBCfgxWeP6a4wHcInRa7litVoZN3Y09qYmVq5cQ3R0FPfevYyoqEimTp7Ikltupqq6mu3bdzJy+DCWLlmMoihs3bYdp7OdSROvABW279jFyBHDGT1qJPPmzmb69Kns3beftWs3sGbtesqPHgPAZrez/L0V7N67j8zM9NAboQvz5s5mRg+5dRw9Wk5lVRUffLiSI0fLOVFdw/L3VrD8vRUc7aoTQO2a1VVZvuDBsKZkMubGbyBqtZwo3PFZxnUAlxH69K60tLTy9tvLqW9oxOV28+jPf4zRYCQvL5em5mZWrlqD1+vDarWSnp6GLMvs3LWbyZOuIMYazT9eeQ1Xezubt2ylra2N66+7BkmUSEkZzP7CA+zdu5/6hkYAHA4nq9esY+SI4SyYf20PPTo6OvqU8/v91Nc3kJ8/hMHJSaxes65XHzpam9j296cJ+LwXPBiSVoek0aIzhoeWOgP4SqDPO+n3BwgEg6iqisPhQJI0CAJoNBpysrP4ySP/zf88+lNGjx5Ja2trD1mfz09rayuBYJDKyiocDicrV67h+RdexOV2s+jGG3j2mSeYM3vWeZVbtWotz/+lS25h33LCWWRVVcXrchK8CCO3V5Sx/Z9/ptPRQurIKy5YbgCXN/qcyaOjoxg6NB+D4TiTJk3EZrfj9weoqa2ls9PDvv2F7Ni5C0VRaHOEvA/x8XGEhYeh1WlJTBxEW5sDj8cDgFar5WBxCWVHyjl0qJQ777idsaNH8eFHq4iMjCQszEhsbAyiIBIfH4+iqDQ1N4XkDpVQdvQ0uTEhOYBgMEhaWioTxo/Dbrfj8XixNzWhKAr6cBM5U+fSVneC2uI9FzgcKqJGg9YQRqez7bOP7gAuC/Rp5F6vlzvvuB2jwYBOr+Odd96nra2NjzduIS83h6tnXclVM2egovLRyjUcPVrOj3/4AwoKhmI0Gnji8cf428v/x8cbNwOwcOF8bl50A4qiIIoiLa1tbNy8BY1Gw+233crUKZPRG/SYI8z89Cc/xGaz8+gvf8PChddz86KFPeU2benWc/fuvcyYPpXfPvZLgsEg23fs4smnnsHlcmO0RDN01gLqDx+4CCMHUZSQtFo8ztZuz88AvtwQTt/WlySJu+/6JtOnTeF3jz+J1+PFHwjQ2GjrnpVNJhNxcbHotFpUoK2tjebmZjIzMrpdeaqqYrPbcXTN8jFWK9YYK0JXmdvdQUNjI6qqkpg4CPMZvvFAMEhVVRVRkVF9yp10S2o0EomDEjEYDYiCQLvLRUNDqF5R0hARn0jA66GjtemCB8QYEcnUO79P5KDBVO3fzsFVb+Md8JV/qdHnTK6qKnV19b181gButxu3u7f/uPxYxVkbaW5pobmld10AdXX1/5YcQDAoU11T02eZIgdx1FefVfZs8LQ72PPOy6SNmYwiB1Hk4EXXMYDLC72MvKWllerqGuSLcL191dBWV0VbXdWlVmMA/QThTBaiIAiIovgfbeQD+GqhlwtRVdUBAx/AVwqXNdX2JI/mdO4MnHrbAL24NRcLSRRRLpLfMoAvFyTLoORHL7USZ8PSJYuZOWM6O3f1dAHm5GTzox8+xK2Lb2LevDk0NjZSX99w0fXrdDr+59GfoigKVVUnPpOuCSYzAgL+gbfgZYfLeu86LjaWwclJvX6325tYtXod5ccqSEtNuSh67ukQBIGsrEwiIy2fSU+tJPHDCVO5Piv3M9UzgM8H/bZcEQSByMhIoqIikUQRd0cHNpsdRVGIj4vDYNCjAnq9js5ODw0NIX+3Qa9ncMpgUFV8fj+NjTb8fv8pBbVaUlIGo9fr8Hl91NU34HA4+HjjJsxmE1OnTOqliyRJxMXFYgoPR1FVmpubaW93oaoqRqORhIR4NJKE1+tFFHoSA0SNhoi4RPyeTjrbms/b72hjGIPNESRHWHD4vAyxxgJQ73ahojIo3IwKNLhdxIebEAWBenc7flkmNSISe2cHTp8Xg0ZDsjmCKqeDoKKgEUUSwk2YdHoCsoyt0437tHEZwIWj34w8Pi6Oh75/PyNHDEcQoLHRzh+e/CNFB4tZcuvNzJw5HZ/XhzXGSmtLK7/89W8pLi4hMzODp574HaIk4vX6WP7eCl5/4+1uQ8/ISOOxXz1KWHgYAvD8Cy+xfsPGc+oyftwY/us79xIfF4eKyr59hfz+D0/T3t7ObUtv4eabFuJ2d1BXV09UVFQP2Yi4ROZ8/9fUlx5g68tPnbMdURCYmpzKHcNHkWGJIslkZmR8AgFZ4S+FuwnIMg+Mm0iqJYr3jpQwOiGRuLBwVlYcYX1lBc/MupZn9+3k3bJD5MfE8Ycr53D7h8tp6HAxJz2L746ZiFmvJ6DIrK44yp/27aIjMGDoF4t+MXJRFLnyymnkD8nj8Sefpra2jnvvXsYd3/gav/zVY0iShKKoPPf8XxGA7z94PzOmTaW4uITyYxU89PCPsFgimDZ1MjfdeAPFxSXs21+IIAh4vT6e/dNfaG5u5pt33M4NC65j85atBAKBPnWJjIxk0Y034HA4+e3vniA2Npbv3X8f8+ZczY5du7lm3hzWrN3A+ys+YPSoEeQPyesh3+lo5fDGDy9oI0lRVTZUVVBkb+Cx6bM5YG/gn4cOANDmDRHDntm7kydnzkUvafjvjWuZlZ5JbnQMBo0GjSj2eJNoRAlBgAidntsLRlLU1MgrxYVkRVn59qjx7KqvZXN15b95l/5z0S9GLkkSI4YPJxgMkpeTQ0ZaOiqh2V2j0aCqKtXV1Wzd+ikxViuNDY2hmVkQGDVyBLOvnklOTjYGgwGDwYDZbAZARaW2to49e/ehqiqVVSfIyckmNjbmrB+aUZEWMjMzaGy0MWniBLQ6HX6fj8GDk2luaUGv01FUdJCqqhO0tbax9NbFPeT9nW6KV797wX3vCPgJuGUCiozT56Xe7epRbu90E1QUyttaqHS28b9F+5AEgcyo6LPWmR4ZRaIpAntnB1elZaIVRXSSRLTBeMF6DeAU+m254vN5sVqjycvNoaW1lfb2dkpKD+PtmtH8/kC3m04l9K/FEsG99yzD4XTy4ksvk5WVyc2LFnZng0ANhaOpqopOpyMuNobW1lbs9hAXJRAIoNIzZE9WFGRZJiUlmfb2dnw+H6WHj1B0sBiPx4Oqqt0cm4iICDSankMgCCIGcwQBn/eiaLoAZp0eSRCQ+3BHBrrcnKqqElRVCP2Htiu8L91yatnkDQYRBYE0SyROnxdZVfn4RAWVA8zIfwv9YuSyLLPlk21MmTwJfyDAsWMVqCoUFRfjdnecVc5sNhMZFcmJ6mosFgspg5PRG/SMHze2mwsTGxfL3DlXk5WVwYzp0/j7P14lGAzxSY4cLSfg9zPrqiuJj4uj0WYL0YB37GLO7Fm0ORzU1NQiSRK79+xFr9PT0dnJvLmzMRgMFOQP6bUmD4+O4Yql38Z2rOSCZ3QVaOrs4LqsXFw+Hw6fl0pnG41uN+MSktBJEtlRVsYOSqLYbsMnB/EEgzi9XmanZyF0re3DtVpGxyeyrrKcQlsDw+PiafV4sHV0EFRlalzt3W0aLdHkTJ1NfUkhTZVHLvKO/WehX/zkqqpSW1dPS0sLubk5DCsYSkZ6GjabjfLyCtLTU0FV2bFzN3q9jtzcHGyNdj7dvh1RFBk1YgRZWRnU1Nbh9fpISUmmuroGQRDIy80hNycHo8HA62+8zeo167p3ZDs6OjGZTBQMze8KnZPYv/8AxSUl6PV6hhUMJS83h8TEQezZu4+6+npaW1sZNWI4ebk5NNrt+HxeiotLOF4Z4qrowk2kjpqI1+WkoezgBfe/we0i2RzBqIRB5MfE0eTpIEyj48bcfFTAajQSpTey31aPNxikI+DHFfAxMi6BRJOZHfU1pFuiEAWBDVUVlLU2E67VMXZQIsNi47Eaw9jbUIej6+0SmTiYGXc/TNXebbiaGj/rLfxKoxd35TNV1rUTeTK6XlGUbi64KAgEu4zz5HJBlmUEQThF0VUUEAQEQejaxVQRxVAZqop8RjQ+9My9cjol4cycLHLXsudk+ye54oIAinJmRgIJFVCVi9vYkQTxtMRbKgogneGiDJ7WjoCAJIbKZUXpjm89eY0oCD0+TGVF7V7qJRWM4er7H+X9n92L01Z3UXr+p6Fft/XPxntRFIXTN95Pv0ZV1e7lR19QlHNTXU8+SBf6+5nt913nv7drKasKnDFlBM9BF1BRCSqnyoNn6KuoKkof8oIoEp2cRqejpTt9xgDOjst6x3MAZ4EKzVXHKF79Lr4O1/mv/w9Hvy5XBjCAyxH9slwRBIHRo0aQlprKmnUb6Og4u0fli0RfGbQEUegR4a+qanfiWlHsHfuvdLn7RFFAVTmVIUwUULuWGueSg1CC3JPfABdDdhQEoUdy3b76Efp2OJm1LPS/k38jhNb1yml6ntlfRVF7tNOjD+fo3+mZ0rp/61L09D4Koc6HvrcuEfptx3PcuDFMnzqVLVs/vSyM/GQGrYYjxRSvfgcAjUZk6V0jyMyJQpZV/H6Z8tJmNq6pJOCXmb84j+whVjQaEUUBv19m1XtHKC60cd/DE5CDCq++eIBOd4Cld42gsryN/bvqWbA4j+z83nKFu0MbVhOmDOaqazMpP9zCB28dxus9f0hdVLSRKVelkj3Eit4g4XL62LS2krLiZjJyorhybjoxseF0uP3s3FrD3u115A+PY/LMVN5/vRRbg5vBKRauX5zHhpUV+LxB7rp/DLu31fHhu2UkJJm57a4R/PPFAxSMDMkJgoBGKyIHFRRFZePq4xw70so3vj0Kg0Fzap9DVdmxpYbGejcLFueh0YZWvZ7OIPt31vPJhir8fhlBFMmZMoesSTPZ8tITuFtsn9PdPjc+Nz650MNLcupvODl7qr2u6UsO/r2chqKkISo5DVfzqYEVBBiUZKatxUtxoQ1LlJ4rpg4mzKRjxZuHKT3YhNPhY8rMVNpaPOzZXkdjvRtREEhJt2CJNPDppmoOHbCRkGSmtbkTv1+m5GATTqePKTNTaGvxdssB6A0aho6MQ6cTGTEmno9XVZzXyA1GDQuX5pM71MrmtVW0tXrIyI4iKTmCliYPt9wxDGerl01rj5OYHMHNXy+g3eEj3KwjOTUCnU7qbntwmgVjmAZFUUnPjgZBYPuWajQakeTUCCRJoOq4E4RqYuLCmDwjhb0766mrbqf2RDsajUhSSgRb1lXiaPV237+aKifRMWFEx4SxfUs1zjYvGdlRXLsoB1ujm+L9oXEPs0QRPTgDscuDdinwuRi5JEl8/fal5OZk84cn/4iqqCxZspjRo0YAsH//Ad548x1iYmO4955lfPjRKjZt/gRJkvjG128jJzuLJ556hubmFowRkYxd9E2Cfh87Xnv+gnVQZBn5LKy98rIWPl5VgUYrotNKZOdbEQWBA3saOH60lSEFsdSecLJpzXEAdDoJn1emydbB2IlJHC4+Ff0f8MsU7W2gsryVvIIY6qrbu+UAoqINpGVGsn1zDZNnppCcEkFL07nznWflRjNkeCwfvlPG1o9PoCoq+3bWI4oC+cNjscaG8coLB6iudGCJMpA9xMqYKxI5dqT1nPW2O32IIhSMjOd4+alrK460UHGkhaxcKyPHJnBwbyMH9obeQsmpFuSgwo4t1dTX9PzInTA1DK8nwO5ttdRUOYkbZCItKwpLlKH7Go/70mc6+FyMXKvVMOmKCTicTvw+PzcsuI5r581h/YaNyIrMvLmzaW938fa77xEeHs7Vs2ayZ+9+AoEAkyZOoLy8ApcrNBOqqoogihc9EwS8nbTVVxPw9F46CUJoTavVSkRGGwgGlT5ddadDVVVKDzaRnhlFakbkBesRm2BCkkQO7m8kNcPCkOGxFO079+ZNfKIZOaBQWd7Wvb4O+GVEUWBQkhmX00e7MzSrOtu8VFW0ER0bdl5d/D6Z4kIboyYMwt544Rl7RVFg3ORknG0+FFmhvKyFhtqQwRuMGsZOTCIrz0p6ViQGowZHS9eMryi0nDiGx9l20XsO/Yl+NXKtTktGehojhheQPDiJ91d8iFanY8yY0VRWVbFu/cchfnl8PAVD83n9zbfY8PEmlt35dRIHJaDT6bBGR/PuwRX4fD4AvO52dr/10kWHp/k6XOx64wXkPnzwU2amkpljJdysxRpr5KN3j+BuP7+/uaHWhdGoYfSEQWg05/e+SpLAsNHxuN1+dHqJZnsnmXnRaHUSAf/Zb7okCb0+kE8i9AFLj4/a0LbS2RLmnYKiqJQeaCI718rgtAsPFJE0IuMnJxMMKPj9Mi6Xv9vIw8J1jJscCmyJSwjnX2+VcbT0FA+/tfo46599FHfr+bn5nxf61chTBg/mt4/9ElN4OEeOlLNr9x5EUSQszMiQvFwe/fmPUQndqD179iLLCrt27WbRwvnMuupKnO3tuDs6KDpYfKpSVcXb4eq1yXI+qIqCu8XeZ5mzzUtttROfJ0h1pZOyQ00X9BAF/Aq7ttay+BvD0OnP/2bRGzTkDo1hUJKJ+380EZ1OQlVVcoZYKSnqWzcAV7sfjVYkKiaM6irnGWU+IiL1aLvW3WHhOuISwvB6ZVB75obsy2Nit3VwuLiJcZOT+yzvCwG/zAtP7qa+y7DV0zawWps7eemZvQSDCvf/aGL3g3AScjCAs7H2whr6nNCvRl5XX88TTz5D/pBcFt4wn7FjR7Nx0xaKD5WQkZHOho83UVJ6GEEQqOuiytbVN/Dp9p1MmzqFRpuNysoqGhpOvc41OgOZV8xADgY4tv3jftHz4H4bK5f3JDWJooAlykC01YhWJxJm0hI/yITT4UWRT3kVThx34Gj1UDA6vpecTicRFq7rlsvIiUavl3jtpSKqK51oNCJLlg0nOc1C6cGzP1jlh5txOXzMX5yLIITeIAajBp9PpqrCgSyrXDk3na0bTpCeFUl6djQrlx/B0eZFp5cYMjyWQEAmd2gMgghul7/7oz8YUDiwp4HJV6ZijtBf8JhFWY34faeMt7PjFJ9fllUaal3s2V7HhKnJ7N5WS0vz+c9ZMkZEojdF4GpqRP4cd277zchVRaWzs5MjR8spPlTCsGEFfO22WykpPczKVWvJyszglsU3IcsysiLz1xdf5vjxSmRZZuu27Vwzbw6JiQn84peP9ajXYI4gd/o1BH2efjHys629w8K13Hx7AfkjYjGZdaRlRpE/PI53XjlE4e4GTu7Ytzt9FO5pYMjwOFDPJhfLO68cIjomDKfDx+5P6/B0BpA0ItWVDoYMi+XTTSfodPcO/FBVldZmD++/Ucq8hTksu38MwUDIpbdpzXE+XnWcNSuOMvv6LKZelUYwoHCo0MbOrTV4PUH272pg3sIcrrkxFzmo8OmmE1RXOklNt3Q/VCeOO6iqaGPEuEFnto6inqJCn4Qkidx1/xjkroddUVS2rKvEVu+mi2KELKvs31nP+MnJDB8bz5Z1Vd1+9rMhZ+occqbMZvUTPzrrW7c/0C87noIgEGO1YjKbOHGiGlVViYuLxWKxcKLqBP5AgOjoKKKjo0NBFIpCo82Ow+EAwGqN5uGHHiAtLZX7v/cD7E2nvBeCKBERl4CqQvtnJCIJgkBCkolOdwCnoydXXBQF4hLCMYZpu39TVWi2d9DhDpCcGkFbiwe3y0+4SUdsfBhtLV5c7b6zyml1EgaDhoY6V1f7YIkyEG7SkZJmYcac9B46qCqUFNn58J0yBEHAEqXHHKFHoxEJBhScjlB7Wq2ENTYMg1FDIKDQ1uKhwx2aCY1hWqJjjGh1En6fTEtTJz5vEK1OIn6QifradlRFJTomDHOEjpqqdmQ55K7VGzTEJYTTbO/E0xl6ADVakcRkM5J06htEBdodXnxemSirEXuDG79fRpIEklIiaHf6ut2N57gZXHHrPcTnDOODX93/uW4WXdJt/fS0VMaPH9d1IsVw/vb3V3jvvX91sxW/qhAEiEswkZLe++OvtcVDxXlcgV8F6IxhTFv2A1RV4eM///pzbeuSJheKtkYzZfJE/H4/f3z2ebZ8su0rb+AQmrFtDW5sDf+5B28JkgZfh4t2+8Xny7noti7lTH6KS64iy7254gP4akMQT8YRfL4T2yWdyc/HJR/AVxtf1AbRAJ/8S4wzzzgdQN/4wmby2JgYVFWlpbV1YFnSD7BYLNy97A5ESeTxPzz9meszGAwkxMej0UgEZZnW1lba20NeIb1eT4zVSmtbKx7PxWUwuBzwhRi5VqvlW/fcCcDTz/z5sqDifvmhotVqkTSfnd0XIsYtZf511+L3+5EkiQNFB/nrSy9TV1dPTnYWD3zvO/z9H6+y7dMv3/mm/WbkoigSHR2NyRQeymWiqrQ5HHR2dpKelsagQYMQRZGsrAw6OjpxOp00NTUjiiJWazQRERGoqoqr3UVTczNarZakxEFoNBqaW1owmUwYDAZcLhc2mx29Xs/g5CRUwO/zYbM3daeWCw8PIyYmBo1Gg9fjRaORcDicONvbkSSJ2JgYwk3hqIpCa1tb99lGEKLomuMGEfB00uk4+1Eup0Or1RIXG4veoEcUxVD0fkMDnZ0eNBoN8fFxGA0GgrJMc3Nzd5oOo9FIjDUanV4fohfLoeNhgkEZg8FATIwVg14PgoAcDNLQ2IjX6yM2NgaLxcLa9Rvw+XruFBoMBuLj49BqNAQCIRm/349OpyM5KRFnezuRkRYURcVub6Kjo4PcnGyunTeXDz9axao16xiUEE9aWioOh5Pk5CTS09OIj4sjPT2NRpsdWZapOU3PvtpLSIjHZDLh9XrxdHqIjIpEDgapqa1DlmVSU1LQ6rQEAgHa2tpwuVyoasiOYmKsmM1mZFmmo6MDo8FAXX0DsiwTHh5ObIwVSaPB7/NR39B43pjdfjPy5KREfvaTR0hJHYzYRSL652tvsr/wAL/42Y+JjbUiiiI/+8kjBINBVq9ex/+9+hqZGek88sOHyEhPR1UVjpYf4/E/PI3P5+PBB77LiOEF7N23n6ioKBLi46mvb+B/fvM7IszmUzkUPV6Wv/8vXn/jLURRYumSW7hx4Xw63B14vF4iIsy8+s83WP7evxg7ZhQP3P8d4uJiURSVvfv288dn/9x91HlEfCJzHvw19YfPnwvxJGZMn8q3v3UXJrMJAfB6fTzy459TeriMuXNmcdeyb2IyhRMMBlm/fiMvvPg3ZDnILYsXsWjhAvQGPQLQ0trGgw+FTr9bcuvNoTK9HlCx2Zr41WO/58iRo8y+ehYL5l9LVFQkBwqLePiRnwKhGflrS2/l5psXotVo8PsDvPraG7z2+lukp6Xy3DNPUn7sWOj4d52Oj1au5oUX/xefz4eiKFitVjweD7v37GPP3v1IksSyb36d0aNGEhMTw62Lb+L6666hpaWVR3/5G5qbm7lt6S0svulGtNpQe/98/U3efOtdFt14A9dfOw+X283hw2UMKxiKTq/nj8/8iS2fbOMnP36YtLRUUKHoYDF/fObP1NXXk5Gexo9/9DCDEhJwOJ24XC7Cw8P5/kOP0O5y8a2772TO7FlIkkRHZwd/ffFlVq1ee8770y95VyRJYvasq7hm3mxefOll3n7nfd5f8QGFhUU0NNrYtWcv6WlpNDU18bvHn+KjlaspLj5EUJZZduc3yM3J5le/+R3bd+xi3rzZKIrC9h07OXiwmLFjxxATE8Ozz/2FfYWFZGZkUFl5gtLDZezff4AdO3cjCAJz51xN6eEj6LRa7v/ufWzctJlnnn0ep7OdGdNCR5cfPXqMB773XyiKyu8ff5I9e/dzzbzZtLU5KCsLcVkUWQ4Z1dFDF0QsirRYWHbnNzAYDDz19HN88NEqPvhwFRUVxzGbzfzgwe9RUXGcJ556hsrjVSyYfx21dXV4vV7u+/Y9NDc18+xzz/OvD1ayavVaGhoa0Wo1PPzQA1TX1PLCi3/jvfc/YO26j6mpqQ3NotU1bN6yFYvFgskUztp1GwAYkpfLd+67h82bt/Lsn14gPCyMq2fN5GBxCaqicMOC6ygqOsSTTz9LUJaZNetK1q/fRENjI6IkMfvqq5g+bQpWazR19fW4XC5KDx+htraOofl5vPraG/zt5VfYtOUT7E1N5OZmh9r7ZCvP/ekFwsKMzJo1k6KDh9ixcxcGg4Exo0exbv1G3nz7HazRoUROe/cVUlp6mN2793LiRA2zr76KoBykqKiYJbcuZtiwAh777eN8tHIN48aOIcJsYvXadYwaOYKlS27h9Tfe5n///n+Eh4dx5ctP/KIAAAnsSURBVIxpbN+xk46Os3Nl+mUmVxSF45VVNDbauGXxTZw4Uc2+/YVs+WQbDqeT2to6fD5fiJhVV9fNFdfrdORmZ1N+rIKDxYfw+/0svGE+6elpaLVabDY7wUCAupZWyo4cweVy88knn6KqKmNGj2L21TPJzcnBYNBjMBiIiDDj9/uJirTw/ooPqTpRjShJ3fQBURRJS02htq6O0aNGodFq0Gq0RHTlXoTTcyFe2Mdxp6eToqKD5OYs4r577+ZoeTl79+3HZrOTlZVBXFwsNrudiRPGo9Xp0Gg1RFosOJzt7NtXyJVXTuOeu++krOwoO3ftpqHRhqIo7C8sYsb0qdyz7A6KS0rZs2cf9Q2hjROH0xma5dwuYqyncipmZWWi1ekoPFBESUkpMdZoJowfS0JCPHW1dQSDMmvWrufI0XIMRgPXzpuDIIRS+L3x5jscOlTK1CmTWLjgevJyc/j9409ht9tpbm5GVhRaWtqoqT314IfeCHoKC4s4VFKK1RrN+PHjSIiPo6SktItV6qakpJRDh0o5fDg0kSQlJXLljGlMmDAOs8mMRqMJHVYsiuRkZ1FRcZyS0sO43R2UHi4jNnYKAIOTk9BIElFRkUydPJFISyQRERHEWK3dqQP7Qr8YuaqqFB4o4sEfPMLg5CSmTpnMbUtuITsrkz88+Uw3N9xgMCAIPb2WgWAAg0GPIIjodHqMBgPt7e09PDCBYKA7ZC4YDBIZaeHeby2jvd3FSy//g8yMdG5etBAIJekJBoOYwsMB0Go0PfIdqqpKVmYmHo8Pv9/PgaJijleeyhQrCAJ6cwRBr4eg33fevvv9Ad59719s276TnOwsrpo5g+999z5EUeTYseNd3yGZBIPBELV4916qa2pxuVz89cW/8dHK1RQU5DN1ymT+++EH+dFPfsGBAwd5/oUXWfGvDxk5cjgzpk9jyqSJ+Hx+tu/YeVZdfD4fAqFvBEEQMJvNiJKIIp/Kw9jSdUz86eQpo9GIVqul8EARxYdKsDc187XbbmVIfh5Nn2wDQgHROr0WQaA7ULm7Pd3J9kyh42lO46EoikogGOLByLKMJElce81c5syexauvvUG7s5377r2nmyIcCAQwGg3drlGj0XiqLBgk3BTOiOHDaLTZCQaDbN36Ka2t584R2W/R+iOGD2No/hB8fh/NLS34fD7MJlPXoISy0y68YT5LlyzuTtq57dMd7N69l9uW3sLSJYsxm0xkZmawYeNmNJKGSdOvwBIZiSCKTJp4Bfv2FdLc0oLZbCY6Korq6hrMJhODk5PQG/SMGzuGrdu209TUzD1338matevJz8/DZArvGnCFnbv2MHfO1bS2tVJTXYuiKj3OEg2PjuWKpfdiKy+leM35cyGGhRmZMX0qlogIFFWhobGRcZrRmE1mjh2roPRwGXm5OdTXN9Da2oY/EKC6uoZIi4VZs2ai0UigQn19AyOGFxAWFoYoilx91Ux0eh0gYG9qIiszg/CwMMLCjIwcMRyTyUR6WhoxMVZmX30VNrudgwcP4Wxv5/rrriEuLpZpUyfjcDg5Wl7e60Dg0zF2zCjmzZ3D4bIyAoEAY8eMIhgM4mgLvQFt9iZkRWH+ddcQFRmJoqisWbuOg8WHcDidzL/uGuJiY5k6ZTIOp5Oj5ccYM3oU2VmZGI0Gxo8dixyUOXK0HL1eR3x8HD6vF7/XR2pqCnq9jtTUFEaOGE5J6WFuW3ILN96wAIfTwZiukEkIhU02NzUjShLHKyvxery0tLZis5+bwdhva/Ixo0eyYMF1DMnLIz09laoT1bz+5ttUV9eiKAo2m53YuFhGDB9GXk5217p7F9XVNRiNRq6YMI74uDg2bfmEt99eTlR0FN+843YMej2SKJGcnBTimjc20tnRgSCKjB41kuzsLOrq6vF6faSmDuZw2RH27T/A0PwhDCvIR6fTER4ezsHiQxQXl3CsogKtRsPwYQUMycsjKSmR0sNHupcCunATqaMn43W301BWdN6+G41G5syZxbRpUxiSm0NMTAzbd+zi3fdW4HK7qag4jsUSwYjhBeTl5mC1RnOg6CCKqrBo4QLGjRtDXm42FouF1WvXs3bdBgRB4LaltzBh/Dhyc7MJDwtj3boNrFqzFovFwu1fW8rEK8ZjsViQJIm83Bx0Wi2bt2ylpaWFgoJ88vPy6Ozs5G9/f4XS0sNEmM0MHZrP5i2f0N7uIirSwpAhuWzctAVVURk7ZiQjR44gNzcHQYB3l69g+45dKIpCR0cniiKTm5NN/pA8UlMGs2//ge4DjQuG5pM/JA9PZycv/+MVjh49xpJbbyIvL5dAIEhi4iB8fj8Hiw8RCARxOJzk5GQzatQIJFGkvPwYycnJiKLImrXr0et1jB87huTkRDweL+HhYaxes46a2joa7TYy0tMoyB9CTnY2iiKzfceuc96jfuOuCIIQmpU4FZF/ev5BCD0Mp+ctPLmlL4pidz5EpSv1MoBGo+mxoyfLco/of40kQVdkf3eUvyyjdrUliSLXXDOX737nW/z0F7/i0y4f78k8iSfrPr1eoDueVLlAstjp/QIVRemZLi9ULnSNjUowGBoXjSSFMhGEBgTltDR7Pfves84zx+X08RQEkCRNd56X0++BRqPp8bdWq+m6B0JXfkgAoftEvTOzKJzMIQkQDAa7c0n21Z5GI/VYmqqqQjAo96ortAxVQvknu+RPjmdsbAw//+kjKIrKj3/6C9raHD3aO73f50L/BU2oKoHAuRuTZfnsuRL74BOfS3lVVQn0UR4REcHtt91Kbm4Oep2OpKREDhQVU1Jy+LztdZdfJBPybP3qWd7796As02cB5+77ucfl7OVn/n7qfp3fUM5mTGdrL2TQffetr7pOctrT01J58IH/QhQlIiMtWCIiePGll7v3Ms7Vv7Phsj7H899BMBikti4UXOHz+Vi5ag279+zr9rAM4PJGp8dD2ZFyVEXB5XZz9Ogx9u3b/5moIAO5EAfwlUcvFqKk0RKZmEJ4lPVS6DOAAfQ7ei1XzLGDmPS172CIiKRs00rKtqxCGeB8D+BLjF4zubvFxt7l/8BlbyD/qvkYTJ/ttOIBDOBSo5eRB/0+mquO4mysRZR6u6oGMIAvG/qMDBIEkcikVNytdoKB829tD2AAlzPOGv7mamokzBJN6qhJ6IzhX6ROAxhAv6JPI5flIDUHdyOIIqPm30ZC3rAvWq8BDKDf0OdmkCRpyJ40C1+Hm52v/4W2uqovWq8BDKDfcM5ofVVVaLfXE/B6vih9BjCAfkefRq6qCh2tTYRZopG0ui9apwEMoF/Ra7miCzMxaMgIYtKy6WxrRr6AwIEBDOByRq+ZPMwSRf5V89HoDRxav2LgMNQBfOnRJ0FL1GgAAVWRL+n5iwMYQH/g/wEFt5kmo9zeHAAAAABJRU5ErkJggg==;" vertex="1" parent="1">
          <mxGeometry x="80" y="320" width="185" height="71" as="geometry" />
        </mxCell>
        <mxCell id="gRWaRnPRZ2yJ30fN4pCJ-11" value="&lt;span style=&quot;background-color: rgb(248, 249, 250);&quot;&gt;&lt;br&gt;context.options.persist&lt;/span&gt;" style="whiteSpace=wrap;html=1;verticalAlign=top;labelBackgroundColor=default;shadow=0;sketch=1;" vertex="1" parent="1">
          <mxGeometry x="500" y="325.5" width="142.5" height="60" as="geometry" />
        </mxCell>
        <mxCell id="gRWaRnPRZ2yJ30fN4pCJ-15" value="&lt;br&gt;enabled: true" style="whiteSpace=wrap;html=1;verticalAlign=top;labelBackgroundColor=default;sketch=1;" vertex="1" parent="1">
          <mxGeometry x="80" y="450" width="180" height="60" as="geometry" />
        </mxCell>
        <mxCell id="gRWaRnPRZ2yJ30fN4pCJ-17" value="&lt;br&gt;key: `pinia_${context.store.$id}`" style="whiteSpace=wrap;html=1;verticalAlign=top;labelBackgroundColor=default;sketch=1;" vertex="1" parent="1">
          <mxGeometry x="80" y="525" width="180" height="60" as="geometry" />
        </mxCell>
        <mxCell id="gRWaRnPRZ2yJ30fN4pCJ-19" value="&lt;br&gt;storage: localStorage" style="whiteSpace=wrap;html=1;verticalAlign=top;labelBackgroundColor=default;sketch=1;" vertex="1" parent="1">
          <mxGeometry x="80" y="600" width="180" height="60" as="geometry" />
        </mxCell>
      </root>
    </mxGraphModel>
  </diagram>
</mxfile>
